<?xml version="1.0" encoding="UTF-8" standalone="no"?>
<!-- Created with Inkscape (http://www.inkscape.org/) -->

<svg
   xmlns:dc="http://purl.org/dc/elements/1.1/"
   xmlns:cc="http://creativecommons.org/ns#"
   xmlns:rdf="http://www.w3.org/1999/02/22-rdf-syntax-ns#"
   xmlns:svg="http://www.w3.org/2000/svg"
   xmlns="http://www.w3.org/2000/svg"
   xmlns:sodipodi="http://sodipodi.sourceforge.net/DTD/sodipodi-0.dtd"
   xmlns:inkscape="http://www.inkscape.org/namespaces/inkscape"
   width="87.716003mm"
   height="56.700695mm"
   viewBox="0 0 310.80474 200.90797"
   id="svg2"
   version="1.1"
   inkscape:version="0.91 r13725"
   sodipodi:docname="rcl.svg">
  <defs
     id="defs4" />
  <sodipodi:namedview
     id="base"
     pagecolor="#ffffff"
     bordercolor="#666666"
     borderopacity="1.0"
     inkscape:pageopacity="0.0"
     inkscape:pageshadow="2"
     inkscape:zoom="1.4142136"
     inkscape:cx="338.46237"
     inkscape:cy="-25.751315"
     inkscape:document-units="px"
     inkscape:current-layer="layer1"
     showgrid="false"
     fit-margin-top="0"
     fit-margin-left="0"
     fit-margin-right="0"
     fit-margin-bottom="0"
     inkscape:window-width="1600"
     inkscape:window-height="1138"
     inkscape:window-x="1600"
     inkscape:window-y="38"
     inkscape:window-maximized="0" />
  <metadata
     id="metadata7">
    <rdf:RDF>
      <cc:Work
         rdf:about="">
        <dc:format>image/svg+xml</dc:format>
        <dc:type
           rdf:resource="http://purl.org/dc/dcmitype/StillImage" />
        <dc:title />
      </cc:Work>
    </rdf:RDF>
  </metadata>
  <g
     inkscape:label="Layer 1"
     inkscape:groupmode="layer"
     id="layer1"
     transform="translate(-32.594672,-354.51229)">
    <path
       style="fill:#eeeeee;fill-opacity:1;fill-rule:evenodd;stroke:#000000;stroke-width:2.88000011;stroke-linecap:butt;stroke-linejoin:miter;stroke-miterlimit:4;stroke-dasharray:none;stroke-opacity:1"
       d="m 86.542002,457.42808 8.2e-5,45.65473 50.727476,25.36373 0,-45.65472"
       id="path4158"
       inkscape:connector-curvature="0"
       sodipodi:nodetypes="cccc" />
    <path
       style="fill:#eeeeee;fill-opacity:1;fill-rule:evenodd;stroke:#000000;stroke-width:2.88000011;stroke-linecap:butt;stroke-linejoin:miter;stroke-miterlimit:4;stroke-dasharray:none;stroke-opacity:1"
       d="m 34.046759,432.24112 8.1e-5,44.59407 52.495244,26.24762 0,-45.65473"
       id="path4160"
       inkscape:connector-curvature="0"
       sodipodi:nodetypes="cccc" />
    <path
       style="fill:#eeeeee;fill-opacity:1;fill-rule:evenodd;stroke:#000000;stroke-width:2.88000011;stroke-linecap:butt;stroke-linejoin:miter;stroke-miterlimit:4;stroke-dasharray:none;stroke-opacity:1"
       d="m 137.26948,482.79207 8e-5,45.65447 50.72723,25.36375 50.72735,-25.36375 1.3e-4,-45.65447"
       id="path4162"
       inkscape:connector-curvature="0"
       sodipodi:nodetypes="ccccc" />
    <path
       sodipodi:nodetypes="cccc"
       inkscape:connector-curvature="0"
       id="path4164"
       d="m 238.72451,482.79182 0,45.65472 50.72748,-25.36373 -8e-5,-45.65473"
       style="fill:#eeeeee;fill-opacity:1;fill-rule:evenodd;stroke:#000000;stroke-width:2.88000011;stroke-linecap:butt;stroke-linejoin:miter;stroke-miterlimit:4;stroke-dasharray:none;stroke-opacity:1" />
    <path
       style="fill:#eeeeee;fill-opacity:1;fill-rule:evenodd;stroke:#000000;stroke-width:2.88000011;stroke-linecap:butt;stroke-linejoin:miter;stroke-miterlimit:4;stroke-dasharray:none;stroke-opacity:1"
       d="m 289.45199,457.42808 0,45.65473 52.49525,-26.24763 0.005,-44.59407"
       id="path4166"
       inkscape:connector-curvature="0"
       sodipodi:nodetypes="cccc" />
    <path
       style="fill:#eeeeee;fill-opacity:1;fill-rule:evenodd;stroke:#000000;stroke-width:2.88000011;stroke-linecap:butt;stroke-linejoin:miter;stroke-miterlimit:4;stroke-dasharray:none;stroke-opacity:1"
       d="m 187.99679,553.64719 0,-45.36971"
       id="path4168"
       inkscape:connector-curvature="0"
       sodipodi:nodetypes="cc" />
    <path
       style="fill:#eeeeee;fill-opacity:1;fill-rule:evenodd;stroke:#000000;stroke-width:2.88000011;stroke-linecap:butt;stroke-linejoin:miter;stroke-miterlimit:4;stroke-dasharray:none;stroke-opacity:1"
       d="m 86.542084,406.84974 50.727476,25.36374 50.72748,-25.36374 -50.72756,-25.36373 z"
       id="path4136"
       inkscape:connector-curvature="0"
       sodipodi:nodetypes="ccccc" />
    <path
       sodipodi:nodetypes="ccccc"
       inkscape:connector-curvature="0"
       id="path4138"
       d="m 86.542084,457.57723 50.727476,25.36373 50.72748,-25.36373 -50.72756,-25.36375 z"
       style="fill:#eeeeee;fill-opacity:1;fill-rule:evenodd;stroke:#000000;stroke-width:2.88000011;stroke-linecap:butt;stroke-linejoin:miter;stroke-miterlimit:4;stroke-dasharray:none;stroke-opacity:1" />
    <path
       sodipodi:nodetypes="ccccc"
       inkscape:connector-curvature="0"
       id="path4140"
       d="M 35.814607,432.21348 86.542084,457.57723 137.26956,432.21348 86.542002,406.84974 Z"
       style="fill:#eeeeee;fill-opacity:1;fill-rule:evenodd;stroke:#000000;stroke-width:2.88000011;stroke-linecap:butt;stroke-linejoin:miter;stroke-miterlimit:4;stroke-dasharray:none;stroke-opacity:1" />
    <path
       style="fill:#eeeeee;fill-opacity:1;fill-rule:evenodd;stroke:#000000;stroke-width:2.88000011;stroke-linecap:butt;stroke-linejoin:miter;stroke-miterlimit:4;stroke-dasharray:none;stroke-opacity:1"
       d="m 137.26956,432.21348 50.72748,25.36375 50.72747,-25.36375 -50.72755,-25.36374 z"
       id="path4142"
       inkscape:connector-curvature="0"
       sodipodi:nodetypes="ccccc" />
    <path
       sodipodi:nodetypes="ccccc"
       inkscape:connector-curvature="0"
       id="path4148"
       d="m 137.26956,482.94096 50.72748,25.36374 50.72747,-25.36374 -50.72755,-25.36373 z"
       style="fill:#eeeeee;fill-opacity:1;fill-rule:evenodd;stroke:#000000;stroke-width:2.88000011;stroke-linecap:butt;stroke-linejoin:miter;stroke-miterlimit:4;stroke-dasharray:none;stroke-opacity:1" />
    <path
       style="fill:#eeeeee;fill-opacity:1;fill-rule:evenodd;stroke:#000000;stroke-width:2.88000011;stroke-linecap:butt;stroke-linejoin:miter;stroke-miterlimit:4;stroke-dasharray:none;stroke-opacity:1"
       d="m 137.26956,381.48601 50.72748,25.36373 50.72747,-25.36373 -50.72755,-25.36375 z"
       id="path4150"
       inkscape:connector-curvature="0"
       sodipodi:nodetypes="ccccc" />
    <path
       sodipodi:nodetypes="ccccc"
       inkscape:connector-curvature="0"
       id="path4152"
       d="m 187.99704,406.84974 50.72747,25.36374 50.72748,-25.36374 -50.72756,-25.36373 z"
       style="fill:#eeeeee;fill-opacity:1;fill-rule:evenodd;stroke:#000000;stroke-width:2.88000011;stroke-linecap:butt;stroke-linejoin:miter;stroke-miterlimit:4;stroke-dasharray:none;stroke-opacity:1" />
    <path
       style="fill:#eeeeee;fill-opacity:1;fill-rule:evenodd;stroke:#000000;stroke-width:2.88000011;stroke-linecap:butt;stroke-linejoin:miter;stroke-miterlimit:4;stroke-dasharray:none;stroke-opacity:1"
       d="m 187.99704,457.57723 50.72747,25.36373 50.72748,-25.36373 -50.72756,-25.36375 z"
       id="path4154"
       inkscape:connector-curvature="0"
       sodipodi:nodetypes="ccccc" />
    <path
       sodipodi:nodetypes="ccccc"
       inkscape:connector-curvature="0"
       id="path4156"
       d="m 238.72451,432.21348 50.72748,25.36375 50.72748,-25.36375 -50.72756,-25.36374 z"
       style="fill:#eeeeee;fill-opacity:1;fill-rule:evenodd;stroke:#000000;stroke-width:2.88000011;stroke-linecap:butt;stroke-linejoin:miter;stroke-miterlimit:4;stroke-dasharray:none;stroke-opacity:1" />
    <ellipse
       style="opacity:1;fill:#2495be;fill-opacity:1;stroke:none;stroke-width:2.88000011;stroke-linecap:butt;stroke-linejoin:bevel;stroke-miterlimit:4;stroke-dasharray:none;stroke-dashoffset:0;stroke-opacity:1"
       id="path4170"
       cx="187.91641"
       cy="381.48721"
       rx="26.899817"
       ry="16.625" />
    <ellipse
       ry="16.625"
       rx="26.899817"
       cy="432.19431"
       cx="187.91641"
       id="ellipse4172"
       style="opacity:1;fill:#2495be;fill-opacity:1;stroke:none;stroke-width:2.88000011;stroke-linecap:butt;stroke-linejoin:bevel;stroke-miterlimit:4;stroke-dasharray:none;stroke-dashoffset:0;stroke-opacity:1" />
    <ellipse
       style="opacity:1;fill:#2495be;fill-opacity:1;stroke:none;stroke-width:2.88000011;stroke-linecap:butt;stroke-linejoin:bevel;stroke-miterlimit:4;stroke-dasharray:none;stroke-dashoffset:0;stroke-opacity:1"
       id="ellipse4174"
       cx="187.91641"
       cy="482.69431"
       rx="26.899817"
       ry="16.625" />
    <ellipse
       style="opacity:1;fill:#2495be;fill-opacity:1;stroke:none;stroke-width:2.88000011;stroke-linecap:butt;stroke-linejoin:bevel;stroke-miterlimit:4;stroke-dasharray:none;stroke-dashoffset:0;stroke-opacity:1"
       id="ellipse4176"
       cx="86.416412"
       cy="432.19431"
       rx="26.899817"
       ry="16.625" />
    <ellipse
       style="opacity:1;fill:#2495be;fill-opacity:1;stroke:none;stroke-width:2.88000011;stroke-linecap:butt;stroke-linejoin:bevel;stroke-miterlimit:4;stroke-dasharray:none;stroke-dashoffset:0;stroke-opacity:1"
       id="ellipse4178"
       cx="289.41641"
       cy="432.19431"
       rx="26.899817"
       ry="16.625" />
    <ellipse
       style="opacity:1;fill:#2495be;fill-opacity:1;stroke:none;stroke-width:2.88000011;stroke-linecap:butt;stroke-linejoin:bevel;stroke-miterlimit:4;stroke-dasharray:none;stroke-dashoffset:0;stroke-opacity:1"
       id="ellipse4180"
       cx="136.91641"
       cy="406.69431"
       rx="26.899817"
       ry="16.625" />
    <ellipse
       ry="16.625"
       rx="26.899817"
       cy="457.69431"
       cx="136.91641"
       id="ellipse4182"
       style="opacity:1;fill:#2495be;fill-opacity:1;stroke:none;stroke-width:2.88000011;stroke-linecap:butt;stroke-linejoin:bevel;stroke-miterlimit:4;stroke-dasharray:none;stroke-dashoffset:0;stroke-opacity:1" />
    <ellipse
       ry="16.625"
       rx="26.899817"
       cy="406.69431"
       cx="238.41641"
       id="ellipse4184"
       style="opacity:1;fill:#2495be;fill-opacity:1;stroke:none;stroke-width:2.88000011;stroke-linecap:butt;stroke-linejoin:bevel;stroke-miterlimit:4;stroke-dasharray:none;stroke-dashoffset:0;stroke-opacity:1" />
    <ellipse
       style="opacity:1;fill:#2495be;fill-opacity:1;stroke:none;stroke-width:2.88000011;stroke-linecap:butt;stroke-linejoin:bevel;stroke-miterlimit:4;stroke-dasharray:none;stroke-dashoffset:0;stroke-opacity:1"
       id="ellipse4186"
       cx="238.41641"
       cy="457.69431"
       rx="26.899817"
       ry="16.625" />
    <ellipse
       ry="16.09305"
       rx="26.039104"
       cy="327.74768"
       cx="338.77991"
       id="ellipse4188"
       style="opacity:1;fill:#ccad47;fill-opacity:1;stroke:none;stroke-width:2.88000011;stroke-linecap:butt;stroke-linejoin:bevel;stroke-miterlimit:4;stroke-dasharray:none;stroke-dashoffset:0;stroke-opacity:1"
       transform="matrix(0.78135771,0.62408343,-0.62408343,0.78135771,0,0)" />
    <ellipse
       transform="matrix(0.78135771,0.62408343,-0.62408343,0.78135771,0,0)"
       style="opacity:1;fill:#ccad47;fill-opacity:1;stroke:none;stroke-width:2.88000011;stroke-linecap:butt;stroke-linejoin:bevel;stroke-miterlimit:4;stroke-dasharray:none;stroke-dashoffset:0;stroke-opacity:1"
       id="ellipse4190"
       cx="394.93399"
       cy="315.53207"
       rx="26.039104"
       ry="16.09305" />
    <ellipse
       ry="16.09305"
       rx="26.039104"
       cy="303.6286"
       cx="450.69742"
       id="ellipse4192"
       style="opacity:1;fill:#ccad47;fill-opacity:1;stroke:none;stroke-width:2.88000011;stroke-linecap:butt;stroke-linejoin:bevel;stroke-miterlimit:4;stroke-dasharray:none;stroke-dashoffset:0;stroke-opacity:1"
       transform="matrix(0.78135771,0.62408343,-0.62408343,0.78135771,0,0)" />
    <ellipse
       transform="matrix(-0.78135771,0.62408343,0.62408343,0.78135771,0,0)"
       style="opacity:1;fill:#888888;fill-opacity:1;stroke:none;stroke-width:2.88000011;stroke-linecap:butt;stroke-linejoin:bevel;stroke-miterlimit:4;stroke-dasharray:none;stroke-dashoffset:0;stroke-opacity:1"
       id="ellipse4194"
       cx="45.167526"
       cy="562.26086"
       rx="26.039104"
       ry="16.09305" />
    <ellipse
       ry="16.09305"
       rx="26.039104"
       cy="550.04523"
       cx="101.32161"
       id="ellipse4196"
       style="opacity:1;fill:#888888;fill-opacity:1;stroke:none;stroke-width:2.88000011;stroke-linecap:butt;stroke-linejoin:bevel;stroke-miterlimit:4;stroke-dasharray:none;stroke-dashoffset:0;stroke-opacity:1"
       transform="matrix(-0.78135771,0.62408343,0.62408343,0.78135771,0,0)" />
    <ellipse
       transform="matrix(-0.78135771,0.62408343,0.62408343,0.78135771,0,0)"
       style="opacity:1;fill:#888888;fill-opacity:1;stroke:none;stroke-width:2.88000011;stroke-linecap:butt;stroke-linejoin:bevel;stroke-miterlimit:4;stroke-dasharray:none;stroke-dashoffset:0;stroke-opacity:1"
       id="ellipse4198"
       cx="157.08501"
       cy="538.14172"
       rx="26.039104"
       ry="16.09305" />
    <g
       id="g4401"
       transform="translate(-74,-210)">
      <path
         d="m 145.19221,634.24173 q -1.95221,0 -1.95221,1.50434 l 0,5.3858 1.12539,0 q 1.90627,0 2.92831,-0.7694 1.02204,-0.78089 1.02204,-2.82496 0,-3.29578 -3.12353,-3.29578 z m -1.95221,11.6673 q 0,1.41247 0.36747,1.75698 0.36748,0.33303 1.67661,0.39044 0.0919,0.11484 0.0919,0.40193 0,0.2756 -0.0919,0.36747 -2.06705,-0.0459 -3.03166,-0.0459 -0.94166,0 -3.05463,0.0459 -0.11484,-0.0919 -0.11484,-0.36747 0,-0.28709 0.11484,-0.40193 1.32061,-0.0459 1.6766,-0.39044 0.36747,-0.34451 0.36747,-1.75698 l 0,-9.42801 q 0,-1.41247 -0.36747,-1.7455 -0.35599,-0.3445 -1.6766,-0.39044 -0.11484,-0.0919 -0.11484,-0.37896 0,-0.28708 0.11484,-0.40192 2.21633,0.0459 3.03166,0.0459 0.40192,0 1.37802,-0.0804 0.97611,-0.0804 1.56177,-0.0804 1.38951,0 2.35413,0.21819 0.96462,0.2067 1.71105,0.9072 1.25171,1.17132 1.25171,2.9398 0,1.61917 -1.02204,2.64121 -1.02204,1.02204 -2.11297,1.37803 l 2.97424,4.93793 q 0.53972,0.89572 1.03352,1.35506 0.49379,0.45934 1.21726,0.45934 0.16077,0.31006 0.023,0.5627 -0.33302,0.16077 -0.98759,0.16077 -1.8144,0 -3.10056,-2.09001 l -2.5149,-4.08815 q -0.28709,-0.47083 -0.8383,-0.67753 -0.55121,-0.21819 -1.91776,-0.21819 l 0,3.97332 z"
         style="font-style:normal;font-variant:normal;font-weight:normal;font-stretch:normal;font-size:medium;line-height:125%;font-family:'Linux Libertine';-inkscape-font-specification:'Linux Libertine';letter-spacing:0px;word-spacing:0px;fill:#000000;fill-opacity:1;stroke:none;stroke-width:1px;stroke-linecap:butt;stroke-linejoin:miter;stroke-opacity:1"
         id="path4293"
         inkscape:connector-curvature="0" />
      <path
         d="m 155.79153,645.3693 q -0.35599,0 -1.33209,0.35599 -0.22967,-0.18374 -0.24115,-0.64308 1.48137,-0.53973 2.75605,-1.30912 0.26412,-0.13781 0.42489,0 l 0,5.61546 q 0,0.44786 0.0804,0.70049 0.0804,0.26412 0.27561,0.39045 0.20671,0.1378 0.39044,0.17225 0.19522,0.0344 0.53973,0.0574 0.18373,0.356 0,0.67754 -0.7005,-0.023 -1.97517,-0.023 -1.55028,0 -2.25078,0.023 -0.20671,-0.33303 0,-0.67754 0.58566,-0.023 0.87275,-0.0919 0.29857,-0.0689 0.53973,-0.36748 0.25264,-0.29857 0.25264,-0.86126 l 0,-3.05463 q 0,-0.58566 -0.0689,-0.7694 -0.0574,-0.19522 -0.26413,-0.19522 z"
         style="font-style:normal;font-variant:normal;font-weight:normal;font-stretch:normal;font-size:medium;line-height:125%;font-family:'Linux Libertine';-inkscape-font-specification:'Linux Libertine';letter-spacing:0px;word-spacing:0px;fill:#000000;fill-opacity:1;stroke:none;stroke-width:1px;stroke-linecap:butt;stroke-linejoin:miter;stroke-opacity:1"
         id="path4295"
         inkscape:connector-curvature="0" />
      <path
         d="m 168.22823,649.00959 q -3.61732,0 -5.56953,-2.13595 -1.95221,-2.13594 -1.95221,-5.38578 0,-1.83737 0.65457,-3.46804 0.65456,-1.63067 1.83737,-2.72161 2.18187,-1.99813 5.05277,-1.99813 1.68808,0 3.29577,0.52824 1.61919,0.51676 1.86035,0.53973 0.35599,1.95221 0.51675,3.64029 -0.44786,0.22967 -0.78088,0.11483 -1.19429,-3.95034 -5.14463,-3.95034 -2.05556,0 -3.75513,2.09001 -1.40099,1.72253 -1.40099,4.77716 0,2.71011 1.53879,4.86903 1.5388,2.14742 3.82403,2.14742 1.64215,0 2.92831,-0.59714 1.28616,-0.60863 2.52638,-1.97518 0.35599,0 0.53973,0.35599 -2.42303,3.16947 -5.97145,3.16947 z"
         style="font-style:normal;font-variant:normal;font-weight:normal;font-stretch:normal;font-size:medium;line-height:125%;font-family:'Linux Libertine';-inkscape-font-specification:'Linux Libertine';letter-spacing:0px;word-spacing:0px;fill:#000000;fill-opacity:1;stroke:none;stroke-width:1px;stroke-linecap:butt;stroke-linejoin:miter;stroke-opacity:1"
         id="path4297"
         inkscape:connector-curvature="0" />
      <path
         d="m 178.20744,645.3693 q -0.35599,0 -1.33209,0.35599 -0.22967,-0.18374 -0.24115,-0.64308 1.48137,-0.53973 2.75605,-1.30912 0.26412,-0.13781 0.42489,0 l 0,5.61546 q 0,0.44786 0.0804,0.70049 0.0804,0.26412 0.27561,0.39045 0.20671,0.1378 0.39044,0.17225 0.19522,0.0344 0.53973,0.0574 0.18373,0.356 0,0.67754 -0.7005,-0.023 -1.97517,-0.023 -1.55028,0 -2.25078,0.023 -0.20671,-0.33303 0,-0.67754 0.58566,-0.023 0.87275,-0.0919 0.29857,-0.0689 0.53973,-0.36748 0.25264,-0.29857 0.25264,-0.86126 l 0,-3.05463 q 0,-0.58566 -0.0689,-0.7694 -0.0574,-0.19522 -0.26412,-0.19522 z"
         style="font-style:normal;font-variant:normal;font-weight:normal;font-stretch:normal;font-size:medium;line-height:125%;font-family:'Linux Libertine';-inkscape-font-specification:'Linux Libertine';letter-spacing:0px;word-spacing:0px;fill:#000000;fill-opacity:1;stroke:none;stroke-width:1px;stroke-linecap:butt;stroke-linejoin:miter;stroke-opacity:1"
         id="path4299"
         inkscape:connector-curvature="0" />
    </g>
    <g
       id="g4443"
       transform="translate(-78,-236)">
      <path
         d="m 200.40517,634.24173 q -1.95221,0 -1.95221,1.50434 l 0,5.3858 1.12539,0 q 1.90627,0 2.9283,-0.7694 1.02204,-0.78089 1.02204,-2.82496 0,-3.29578 -3.12352,-3.29578 z m -1.95221,11.6673 q 0,1.41247 0.36747,1.75698 0.36747,0.33303 1.6766,0.39044 0.0919,0.11484 0.0919,0.40193 0,0.2756 -0.0919,0.36747 -2.06704,-0.0459 -3.03166,-0.0459 -0.94165,0 -3.05463,0.0459 -0.11483,-0.0919 -0.11483,-0.36747 0,-0.28709 0.11483,-0.40193 1.32062,-0.0459 1.67661,-0.39044 0.36747,-0.34451 0.36747,-1.75698 l 0,-9.42801 q 0,-1.41247 -0.36747,-1.7455 -0.35599,-0.3445 -1.67661,-0.39044 -0.11483,-0.0919 -0.11483,-0.37896 0,-0.28708 0.11483,-0.40192 2.21633,0.0459 3.03166,0.0459 0.40193,0 1.37803,-0.0804 0.97611,-0.0804 1.56176,-0.0804 1.38951,0 2.35414,0.21819 0.96461,0.2067 1.71105,0.9072 1.2517,1.17132 1.2517,2.9398 0,1.61917 -1.02203,2.64121 -1.02204,1.02204 -2.11298,1.37803 l 2.97424,4.93793 q 0.53973,0.89572 1.03353,1.35506 0.49379,0.45934 1.21725,0.45934 0.16077,0.31006 0.023,0.5627 -0.33302,0.16077 -0.98759,0.16077 -1.81439,0 -3.10055,-2.09001 l -2.51491,-4.08815 q -0.28708,-0.47083 -0.83829,-0.67753 -0.55122,-0.21819 -1.91776,-0.21819 l 0,3.97332 z"
         style="font-style:normal;font-variant:normal;font-weight:normal;font-stretch:normal;font-size:medium;line-height:125%;font-family:'Linux Libertine';-inkscape-font-specification:'Linux Libertine';letter-spacing:0px;word-spacing:0px;fill:#000000;fill-opacity:1;stroke:none;stroke-width:1px;stroke-linecap:butt;stroke-linejoin:miter;stroke-opacity:1"
         id="path4301"
         inkscape:connector-curvature="0" />
      <path
         d="m 211.00449,645.3693 q -0.35599,0 -1.3321,0.35599 -0.22966,-0.18374 -0.24115,-0.64308 1.48138,-0.53973 2.75606,-1.30912 0.26412,-0.13781 0.42489,0 l 0,5.61546 q 0,0.44786 0.0804,0.70049 0.0804,0.26412 0.27561,0.39045 0.20671,0.1378 0.39044,0.17225 0.19522,0.0344 0.53972,0.0574 0.18374,0.356 0,0.67754 -0.70049,-0.023 -1.97517,-0.023 -1.55028,0 -2.25078,0.023 -0.2067,-0.33303 0,-0.67754 0.58567,-0.023 0.87276,-0.0919 0.29857,-0.0689 0.53973,-0.36748 0.25264,-0.29857 0.25264,-0.86126 l 0,-3.05463 q 0,-0.58566 -0.0689,-0.7694 -0.0574,-0.19522 -0.26412,-0.19522 z"
         style="font-style:normal;font-variant:normal;font-weight:normal;font-stretch:normal;font-size:medium;line-height:125%;font-family:'Linux Libertine';-inkscape-font-specification:'Linux Libertine';letter-spacing:0px;word-spacing:0px;fill:#000000;fill-opacity:1;stroke:none;stroke-width:1px;stroke-linecap:butt;stroke-linejoin:miter;stroke-opacity:1"
         id="path4303"
         inkscape:connector-curvature="0" />
      <path
         d="m 223.44118,649.00959 q -3.61732,0 -5.56952,-2.13595 -1.95221,-2.13594 -1.95221,-5.38578 0,-1.83737 0.65457,-3.46804 0.65456,-1.63067 1.83737,-2.72161 2.18187,-1.99813 5.05276,-1.99813 1.68809,0 3.29578,0.52824 1.61919,0.51676 1.86034,0.53973 0.35599,1.95221 0.51676,3.64029 -0.44786,0.22967 -0.78088,0.11483 -1.19429,-3.95034 -5.14463,-3.95034 -2.05557,0 -3.75513,2.09001 -1.40099,1.72253 -1.40099,4.77716 0,2.71011 1.53879,4.86903 1.5388,2.14742 3.82403,2.14742 1.64215,0 2.92831,-0.59714 1.28616,-0.60863 2.52638,-1.97518 0.35599,0 0.53972,0.35599 -2.42302,3.16947 -5.97145,3.16947 z"
         style="font-style:normal;font-variant:normal;font-weight:normal;font-stretch:normal;font-size:medium;line-height:125%;font-family:'Linux Libertine';-inkscape-font-specification:'Linux Libertine';letter-spacing:0px;word-spacing:0px;fill:#000000;fill-opacity:1;stroke:none;stroke-width:1px;stroke-linecap:butt;stroke-linejoin:miter;stroke-opacity:1"
         id="path4305"
         inkscape:connector-curvature="0" />
      <path
         d="m 231.97347,646.17315 q -0.2067,0 -0.41341,-0.17225 -0.2067,-0.18374 -0.2067,-0.39044 0,-0.60863 0.63159,-1.20578 0.64308,-0.60863 1.88331,-0.60863 1.03352,0 1.79143,0.45934 0.75792,0.45935 0.75792,1.49287 0,0.75791 -0.50528,1.38951 -0.50527,0.63159 -1.59621,1.41248 -1.19429,0.87275 -1.55028,2.11297 l 1.9522,0 q 0.26412,0 0.47083,-0.1378 0.21819,-0.12632 0.37895,-0.43638 0.16077,-0.29857 0.24116,-0.47083 0.0919,-0.16076 0.22967,-0.52823 0.37896,0 0.5627,0.11483 -0.16077,1.29764 -0.44786,2.20484 l -4.84607,0 q 0,-1.43544 2.02111,-2.98573 0.89572,-0.72346 1.26319,-1.2517 0.36748,-0.52825 0.36748,-1.401 0,-1.27467 -1.18281,-1.27467 -0.91868,0 -1.12539,0.49379 -0.0459,0.11484 -0.0459,0.35599 0,0.22967 0,0.33302 -0.0919,0.4938 -0.63159,0.4938 z"
         style="font-style:normal;font-variant:normal;font-weight:normal;font-stretch:normal;font-size:medium;line-height:125%;font-family:'Linux Libertine';-inkscape-font-specification:'Linux Libertine';letter-spacing:0px;word-spacing:0px;fill:#000000;fill-opacity:1;stroke:none;stroke-width:1px;stroke-linecap:butt;stroke-linejoin:miter;stroke-opacity:1"
         id="path4307"
         inkscape:connector-curvature="0" />
    </g>
    <g
       id="g4437"
       transform="translate(-82,-262)">
      <path
         d="m 255.61812,634.24173 q -1.95221,0 -1.95221,1.50434 l 0,5.3858 1.1254,0 q 1.90626,0 2.9283,-0.7694 1.02204,-0.78089 1.02204,-2.82496 0,-3.29578 -3.12353,-3.29578 z m -1.95221,11.6673 q 0,1.41247 0.36748,1.75698 0.36747,0.33303 1.6766,0.39044 0.0919,0.11484 0.0919,0.40193 0,0.2756 -0.0919,0.36747 -2.06704,-0.0459 -3.03166,-0.0459 -0.94165,0 -3.05463,0.0459 -0.11483,-0.0919 -0.11483,-0.36747 0,-0.28709 0.11483,-0.40193 1.32061,-0.0459 1.6766,-0.39044 0.36748,-0.34451 0.36748,-1.75698 l 0,-9.42801 q 0,-1.41247 -0.36748,-1.7455 -0.35599,-0.3445 -1.6766,-0.39044 -0.11483,-0.0919 -0.11483,-0.37896 0,-0.28708 0.11483,-0.40192 2.21633,0.0459 3.03166,0.0459 0.40193,0 1.37803,-0.0804 0.9761,-0.0804 1.56176,-0.0804 1.38951,0 2.35413,0.21819 0.96462,0.2067 1.71106,0.9072 1.2517,1.17132 1.2517,2.9398 0,1.61917 -1.02204,2.64121 -1.02203,1.02204 -2.11297,1.37803 l 2.97424,4.93793 q 0.53973,0.89572 1.03352,1.35506 0.4938,0.45934 1.21726,0.45934 0.16077,0.31006 0.023,0.5627 -0.33302,0.16077 -0.98759,0.16077 -1.8144,0 -3.10055,-2.09001 l -2.51491,-4.08815 q -0.28709,-0.47083 -0.8383,-0.67753 -0.55121,-0.21819 -1.91775,-0.21819 l 0,3.97332 z"
         style="font-style:normal;font-variant:normal;font-weight:normal;font-stretch:normal;font-size:medium;line-height:125%;font-family:'Linux Libertine';-inkscape-font-specification:'Linux Libertine';letter-spacing:0px;word-spacing:0px;fill:#000000;fill-opacity:1;stroke:none;stroke-width:1px;stroke-linecap:butt;stroke-linejoin:miter;stroke-opacity:1"
         id="path4309"
         inkscape:connector-curvature="0" />
      <path
         d="m 266.21745,645.3693 q -0.35599,0 -1.3321,0.35599 -0.22967,-0.18374 -0.24115,-0.64308 1.48138,-0.53973 2.75605,-1.30912 0.26413,-0.13781 0.42489,0 l 0,5.61546 q 0,0.44786 0.0804,0.70049 0.0804,0.26412 0.2756,0.39045 0.20671,0.1378 0.39045,0.17225 0.19522,0.0344 0.53972,0.0574 0.18374,0.356 0,0.67754 -0.70049,-0.023 -1.97517,-0.023 -1.55028,0 -2.25078,0.023 -0.2067,-0.33303 0,-0.67754 0.58567,-0.023 0.87275,-0.0919 0.29858,-0.0689 0.53973,-0.36748 0.25264,-0.29857 0.25264,-0.86126 l 0,-3.05463 q 0,-0.58566 -0.0689,-0.7694 -0.0574,-0.19522 -0.26412,-0.19522 z"
         style="font-style:normal;font-variant:normal;font-weight:normal;font-stretch:normal;font-size:medium;line-height:125%;font-family:'Linux Libertine';-inkscape-font-specification:'Linux Libertine';letter-spacing:0px;word-spacing:0px;fill:#000000;fill-opacity:1;stroke:none;stroke-width:1px;stroke-linecap:butt;stroke-linejoin:miter;stroke-opacity:1"
         id="path4311"
         inkscape:connector-curvature="0" />
      <path
         d="m 278.65414,649.00959 q -3.61732,0 -5.56952,-2.13595 -1.95221,-2.13594 -1.95221,-5.38578 0,-1.83737 0.65457,-3.46804 0.65456,-1.63067 1.83737,-2.72161 2.18187,-1.99813 5.05276,-1.99813 1.68808,0 3.29578,0.52824 1.61918,0.51676 1.86034,0.53973 0.35599,1.95221 0.51676,3.64029 -0.44786,0.22967 -0.78088,0.11483 -1.19429,-3.95034 -5.14464,-3.95034 -2.05556,0 -3.75512,2.09001 -1.401,1.72253 -1.401,4.77716 0,2.71011 1.5388,4.86903 1.5388,2.14742 3.82402,2.14742 1.64215,0 2.92831,-0.59714 1.28616,-0.60863 2.52638,-1.97518 0.35599,0 0.53973,0.35599 -2.42303,3.16947 -5.97145,3.16947 z"
         style="font-style:normal;font-variant:normal;font-weight:normal;font-stretch:normal;font-size:medium;line-height:125%;font-family:'Linux Libertine';-inkscape-font-specification:'Linux Libertine';letter-spacing:0px;word-spacing:0px;fill:#000000;fill-opacity:1;stroke:none;stroke-width:1px;stroke-linecap:butt;stroke-linejoin:miter;stroke-opacity:1"
         id="path4313"
         inkscape:connector-curvature="0" />
      <path
         d="m 289.83913,645.3004 q 0,-0.42489 -0.27561,-0.60863 -0.26412,-0.19522 -0.62011,-0.19522 -0.35599,0 -0.73495,0.16077 -0.36747,0.14929 -0.48231,0.40193 -0.023,0.0459 -0.0804,0.21818 -0.0459,0.16077 -0.0804,0.22967 -0.0344,0.0689 -0.16076,0.16077 -0.12632,0.0804 -0.32154,0.0804 -0.20671,0 -0.34451,-0.0919 -0.12632,-0.10335 -0.16077,-0.19522 -0.0345,-0.0919 -0.0345,-0.1378 0,-0.26412 0.21819,-0.57418 0.22967,-0.32154 0.87275,-0.6316 0.65456,-0.32154 1.59621,-0.32154 0.91868,0 1.45841,0.36748 0.53973,0.35599 0.53973,1.02203 0,0.94165 -1.20577,1.59621 0.7005,0.0689 1.28616,0.59715 0.59714,0.52825 0.59714,1.4699 0,1.19429 -0.91868,1.9522 -0.91869,0.75792 -2.35413,0.75792 -0.66605,0 -1.4699,-0.26412 -0.80385,-0.26412 -0.80385,-0.74644 0,-0.22967 0.17225,-0.37895 0.18374,-0.1378 0.41342,-0.1378 0.49379,0 0.70049,0.39044 0.2067,0.42489 1.09094,0.42489 0.67753,0 1.19429,-0.40193 0.51676,-0.39044 0.51676,-1.40099 0,-1.43545 -1.75698,-1.43545 -0.0919,0 -0.47083,0.0459 -0.16077,-0.2067 -0.0459,-0.64308 1.66511,-0.22967 1.66511,-1.71105 z"
         style="font-style:normal;font-variant:normal;font-weight:normal;font-stretch:normal;font-size:medium;line-height:125%;font-family:'Linux Libertine';-inkscape-font-specification:'Linux Libertine';letter-spacing:0px;word-spacing:0px;fill:#000000;fill-opacity:1;stroke:none;stroke-width:1px;stroke-linecap:butt;stroke-linejoin:miter;stroke-opacity:1"
         id="path4315"
         inkscape:connector-curvature="0" />
    </g>
    <g
       id="g4407"
       transform="translate(-22.707107,-214.70711)">
      <path
         d="m 145.19221,663.63964 q -1.95221,0 -1.95221,1.50435 l 0,5.38579 1.12539,0 q 1.90627,0 2.92831,-0.7694 1.02204,-0.78088 1.02204,-2.82495 0,-3.29579 -3.12353,-3.29579 z m -1.95221,11.6673 q 0,1.41248 0.36747,1.75699 0.36748,0.33302 1.67661,0.39043 0.0919,0.11484 0.0919,0.40193 0,0.27561 -0.0919,0.36748 -2.06705,-0.0459 -3.03166,-0.0459 -0.94166,0 -3.05463,0.0459 -0.11484,-0.0919 -0.11484,-0.36748 0,-0.28709 0.11484,-0.40193 1.32061,-0.0459 1.6766,-0.39043 0.36747,-0.34451 0.36747,-1.75699 l 0,-9.428 q 0,-1.41248 -0.36747,-1.74551 -0.35599,-0.3445 -1.6766,-0.39043 -0.11484,-0.0919 -0.11484,-0.37896 0,-0.28709 0.11484,-0.40192 2.21633,0.0459 3.03166,0.0459 0.40192,0 1.37802,-0.0804 0.97611,-0.0804 1.56177,-0.0804 1.38951,0 2.35413,0.2182 0.96462,0.2067 1.71105,0.9072 1.25171,1.17132 1.25171,2.93979 0,1.61918 -1.02204,2.64121 -1.02204,1.02204 -2.11297,1.37803 l 2.97424,4.93793 q 0.53972,0.89572 1.03352,1.35506 0.49379,0.45935 1.21726,0.45935 0.16077,0.31005 0.023,0.56269 -0.33302,0.16077 -0.98759,0.16077 -1.8144,0 -3.10056,-2.09001 l -2.5149,-4.08815 q -0.28709,-0.47082 -0.8383,-0.67753 -0.55121,-0.21818 -1.91776,-0.21818 l 0,3.97331 z"
         style="font-style:normal;font-variant:normal;font-weight:normal;font-stretch:normal;font-size:medium;line-height:125%;font-family:'Linux Libertine';-inkscape-font-specification:'Linux Libertine';letter-spacing:0px;word-spacing:0px;fill:#000000;fill-opacity:1;stroke:none;stroke-width:1px;stroke-linecap:butt;stroke-linejoin:miter;stroke-opacity:1"
         id="path4317"
         inkscape:connector-curvature="0" />
      <path
         d="m 154.3446,675.57106 q -0.2067,0 -0.4134,-0.17225 -0.20671,-0.18374 -0.20671,-0.39044 0,-0.60863 0.6316,-1.20577 0.64307,-0.60863 1.8833,-0.60863 1.03352,0 1.79143,0.45934 0.75792,0.45934 0.75792,1.49286 0,0.75791 -0.50528,1.38951 -0.50527,0.6316 -1.59621,1.41248 -1.19429,0.87275 -1.55028,2.11298 l 1.9522,0 q 0.26413,0 0.47083,-0.13781 0.21819,-0.12632 0.37896,-0.43638 0.16077,-0.29857 0.24115,-0.47082 0.0919,-0.16077 0.22967,-0.52824 0.37896,0 0.5627,0.11483 -0.16077,1.29765 -0.44786,2.20485 l -4.84606,0 q 0,-1.43545 2.0211,-2.98573 0.89572,-0.72347 1.2632,-1.25171 0.36747,-0.52824 0.36747,-1.40099 0,-1.27467 -1.18281,-1.27467 -0.91868,0 -1.12538,0.49379 -0.0459,0.11483 -0.0459,0.35599 0,0.22967 0,0.33302 -0.0919,0.49379 -0.6316,0.49379 z"
         style="font-style:normal;font-variant:normal;font-weight:normal;font-stretch:normal;font-size:medium;line-height:125%;font-family:'Linux Libertine';-inkscape-font-specification:'Linux Libertine';letter-spacing:0px;word-spacing:0px;fill:#000000;fill-opacity:1;stroke:none;stroke-width:1px;stroke-linecap:butt;stroke-linejoin:miter;stroke-opacity:1"
         id="path4319"
         inkscape:connector-curvature="0" />
      <path
         d="m 168.22823,678.4075 q -3.61732,0 -5.56953,-2.13594 -1.95221,-2.13594 -1.95221,-5.38579 0,-1.83737 0.65457,-3.46804 0.65456,-1.63066 1.83737,-2.7216 2.18187,-1.99814 5.05277,-1.99814 1.68808,0 3.29577,0.52824 1.61919,0.51677 1.86035,0.53973 0.35599,1.95221 0.51675,3.64029 -0.44786,0.22967 -0.78088,0.11484 -1.19429,-3.95035 -5.14463,-3.95035 -2.05556,0 -3.75513,2.09001 -1.40099,1.72254 -1.40099,4.77716 0,2.71012 1.53879,4.86903 1.5388,2.14742 3.82403,2.14742 1.64215,0 2.92831,-0.59714 1.28616,-0.60863 2.52638,-1.97517 0.35599,0 0.53973,0.35599 -2.42303,3.16946 -5.97145,3.16946 z"
         style="font-style:normal;font-variant:normal;font-weight:normal;font-stretch:normal;font-size:medium;line-height:125%;font-family:'Linux Libertine';-inkscape-font-specification:'Linux Libertine';letter-spacing:0px;word-spacing:0px;fill:#000000;fill-opacity:1;stroke:none;stroke-width:1px;stroke-linecap:butt;stroke-linejoin:miter;stroke-opacity:1"
         id="path4321"
         inkscape:connector-curvature="0" />
      <path
         d="m 178.20744,674.76721 q -0.35599,0 -1.33209,0.35599 -0.22967,-0.18373 -0.24115,-0.64308 1.48137,-0.53972 2.75605,-1.30912 0.26412,-0.13781 0.42489,0 l 0,5.61546 q 0,0.44786 0.0804,0.70049 0.0804,0.26413 0.27561,0.39045 0.20671,0.1378 0.39044,0.17225 0.19522,0.0345 0.53973,0.0574 0.18373,0.35599 0,0.67753 -0.7005,-0.023 -1.97517,-0.023 -1.55028,0 -2.25078,0.023 -0.20671,-0.33302 0,-0.67753 0.58566,-0.023 0.87275,-0.0919 0.29857,-0.0689 0.53973,-0.36747 0.25264,-0.29858 0.25264,-0.86127 l 0,-3.05462 q 0,-0.58567 -0.0689,-0.76941 -0.0574,-0.19522 -0.26412,-0.19522 z"
         style="font-style:normal;font-variant:normal;font-weight:normal;font-stretch:normal;font-size:medium;line-height:125%;font-family:'Linux Libertine';-inkscape-font-specification:'Linux Libertine';letter-spacing:0px;word-spacing:0px;fill:#000000;fill-opacity:1;stroke:none;stroke-width:1px;stroke-linecap:butt;stroke-linejoin:miter;stroke-opacity:1"
         id="path4323"
         inkscape:connector-curvature="0" />
    </g>
    <g
       id="g4449"
       transform="translate(-26.707107,-240.70711)">
      <path
         d="m 200.40517,663.63964 q -1.95221,0 -1.95221,1.50435 l 0,5.38579 1.12539,0 q 1.90627,0 2.9283,-0.7694 1.02204,-0.78088 1.02204,-2.82495 0,-3.29579 -3.12352,-3.29579 z m -1.95221,11.6673 q 0,1.41248 0.36747,1.75699 0.36747,0.33302 1.6766,0.39043 0.0919,0.11484 0.0919,0.40193 0,0.27561 -0.0919,0.36748 -2.06704,-0.0459 -3.03166,-0.0459 -0.94165,0 -3.05463,0.0459 -0.11483,-0.0919 -0.11483,-0.36748 0,-0.28709 0.11483,-0.40193 1.32062,-0.0459 1.67661,-0.39043 0.36747,-0.34451 0.36747,-1.75699 l 0,-9.428 q 0,-1.41248 -0.36747,-1.74551 -0.35599,-0.3445 -1.67661,-0.39043 -0.11483,-0.0919 -0.11483,-0.37896 0,-0.28709 0.11483,-0.40192 2.21633,0.0459 3.03166,0.0459 0.40193,0 1.37803,-0.0804 0.97611,-0.0804 1.56176,-0.0804 1.38951,0 2.35414,0.2182 0.96461,0.2067 1.71105,0.9072 1.2517,1.17132 1.2517,2.93979 0,1.61918 -1.02203,2.64121 -1.02204,1.02204 -2.11298,1.37803 l 2.97424,4.93793 q 0.53973,0.89572 1.03353,1.35506 0.49379,0.45935 1.21725,0.45935 0.16077,0.31005 0.023,0.56269 -0.33302,0.16077 -0.98759,0.16077 -1.81439,0 -3.10055,-2.09001 l -2.51491,-4.08815 q -0.28708,-0.47082 -0.83829,-0.67753 -0.55122,-0.21818 -1.91776,-0.21818 l 0,3.97331 z"
         style="font-style:normal;font-variant:normal;font-weight:normal;font-stretch:normal;font-size:medium;line-height:125%;font-family:'Linux Libertine';-inkscape-font-specification:'Linux Libertine';letter-spacing:0px;word-spacing:0px;fill:#000000;fill-opacity:1;stroke:none;stroke-width:1px;stroke-linecap:butt;stroke-linejoin:miter;stroke-opacity:1"
         id="path4325"
         inkscape:connector-curvature="0" />
      <path
         d="m 209.55756,675.57106 q -0.2067,0 -0.41341,-0.17225 -0.2067,-0.18374 -0.2067,-0.39044 0,-0.60863 0.63159,-1.20577 0.64308,-0.60863 1.88331,-0.60863 1.03352,0 1.79143,0.45934 0.75792,0.45934 0.75792,1.49286 0,0.75791 -0.50528,1.38951 -0.50527,0.6316 -1.59621,1.41248 -1.19429,0.87275 -1.55028,2.11298 l 1.9522,0 q 0.26412,0 0.47083,-0.13781 0.21819,-0.12632 0.37895,-0.43638 0.16077,-0.29857 0.24116,-0.47082 0.0919,-0.16077 0.22967,-0.52824 0.37896,0 0.5627,0.11483 -0.16077,1.29765 -0.44786,2.20485 l -4.84607,0 q 0,-1.43545 2.02111,-2.98573 0.89572,-0.72347 1.26319,-1.25171 0.36748,-0.52824 0.36748,-1.40099 0,-1.27467 -1.18281,-1.27467 -0.91868,0 -1.12539,0.49379 -0.0459,0.11483 -0.0459,0.35599 0,0.22967 0,0.33302 -0.0919,0.49379 -0.63159,0.49379 z"
         style="font-style:normal;font-variant:normal;font-weight:normal;font-stretch:normal;font-size:medium;line-height:125%;font-family:'Linux Libertine';-inkscape-font-specification:'Linux Libertine';letter-spacing:0px;word-spacing:0px;fill:#000000;fill-opacity:1;stroke:none;stroke-width:1px;stroke-linecap:butt;stroke-linejoin:miter;stroke-opacity:1"
         id="path4327"
         inkscape:connector-curvature="0" />
      <path
         d="m 223.44118,678.4075 q -3.61732,0 -5.56952,-2.13594 -1.95221,-2.13594 -1.95221,-5.38579 0,-1.83737 0.65457,-3.46804 0.65456,-1.63066 1.83737,-2.7216 2.18187,-1.99814 5.05276,-1.99814 1.68809,0 3.29578,0.52824 1.61919,0.51677 1.86034,0.53973 0.35599,1.95221 0.51676,3.64029 -0.44786,0.22967 -0.78088,0.11484 -1.19429,-3.95035 -5.14463,-3.95035 -2.05557,0 -3.75513,2.09001 -1.40099,1.72254 -1.40099,4.77716 0,2.71012 1.53879,4.86903 1.5388,2.14742 3.82403,2.14742 1.64215,0 2.92831,-0.59714 1.28616,-0.60863 2.52638,-1.97517 0.35599,0 0.53972,0.35599 -2.42302,3.16946 -5.97145,3.16946 z"
         style="font-style:normal;font-variant:normal;font-weight:normal;font-stretch:normal;font-size:medium;line-height:125%;font-family:'Linux Libertine';-inkscape-font-specification:'Linux Libertine';letter-spacing:0px;word-spacing:0px;fill:#000000;fill-opacity:1;stroke:none;stroke-width:1px;stroke-linecap:butt;stroke-linejoin:miter;stroke-opacity:1"
         id="path4329"
         inkscape:connector-curvature="0" />
      <path
         d="m 231.97347,675.57106 q -0.2067,0 -0.41341,-0.17225 -0.2067,-0.18374 -0.2067,-0.39044 0,-0.60863 0.63159,-1.20577 0.64308,-0.60863 1.88331,-0.60863 1.03352,0 1.79143,0.45934 0.75792,0.45934 0.75792,1.49286 0,0.75791 -0.50528,1.38951 -0.50527,0.6316 -1.59621,1.41248 -1.19429,0.87275 -1.55028,2.11298 l 1.9522,0 q 0.26412,0 0.47083,-0.13781 0.21819,-0.12632 0.37895,-0.43638 0.16077,-0.29857 0.24116,-0.47082 0.0919,-0.16077 0.22967,-0.52824 0.37896,0 0.5627,0.11483 -0.16077,1.29765 -0.44786,2.20485 l -4.84607,0 q 0,-1.43545 2.02111,-2.98573 0.89572,-0.72347 1.26319,-1.25171 0.36748,-0.52824 0.36748,-1.40099 0,-1.27467 -1.18281,-1.27467 -0.91868,0 -1.12539,0.49379 -0.0459,0.11483 -0.0459,0.35599 0,0.22967 0,0.33302 -0.0919,0.49379 -0.63159,0.49379 z"
         style="font-style:normal;font-variant:normal;font-weight:normal;font-stretch:normal;font-size:medium;line-height:125%;font-family:'Linux Libertine';-inkscape-font-specification:'Linux Libertine';letter-spacing:0px;word-spacing:0px;fill:#000000;fill-opacity:1;stroke:none;stroke-width:1px;stroke-linecap:butt;stroke-linejoin:miter;stroke-opacity:1"
         id="path4331"
         inkscape:connector-curvature="0" />
    </g>
    <g
       id="g4431"
       transform="translate(-30.707107,-266.70711)">
      <path
         d="m 255.61812,663.63964 q -1.95221,0 -1.95221,1.50435 l 0,5.38579 1.1254,0 q 1.90626,0 2.9283,-0.7694 1.02204,-0.78088 1.02204,-2.82495 0,-3.29579 -3.12353,-3.29579 z m -1.95221,11.6673 q 0,1.41248 0.36748,1.75699 0.36747,0.33302 1.6766,0.39043 0.0919,0.11484 0.0919,0.40193 0,0.27561 -0.0919,0.36748 -2.06704,-0.0459 -3.03166,-0.0459 -0.94165,0 -3.05463,0.0459 -0.11483,-0.0919 -0.11483,-0.36748 0,-0.28709 0.11483,-0.40193 1.32061,-0.0459 1.6766,-0.39043 0.36748,-0.34451 0.36748,-1.75699 l 0,-9.428 q 0,-1.41248 -0.36748,-1.74551 -0.35599,-0.3445 -1.6766,-0.39043 -0.11483,-0.0919 -0.11483,-0.37896 0,-0.28709 0.11483,-0.40192 2.21633,0.0459 3.03166,0.0459 0.40193,0 1.37803,-0.0804 0.9761,-0.0804 1.56176,-0.0804 1.38951,0 2.35413,0.2182 0.96462,0.2067 1.71106,0.9072 1.2517,1.17132 1.2517,2.93979 0,1.61918 -1.02204,2.64121 -1.02203,1.02204 -2.11297,1.37803 l 2.97424,4.93793 q 0.53973,0.89572 1.03352,1.35506 0.4938,0.45935 1.21726,0.45935 0.16077,0.31005 0.023,0.56269 -0.33302,0.16077 -0.98759,0.16077 -1.8144,0 -3.10055,-2.09001 l -2.51491,-4.08815 q -0.28709,-0.47082 -0.8383,-0.67753 -0.55121,-0.21818 -1.91775,-0.21818 l 0,3.97331 z"
         style="font-style:normal;font-variant:normal;font-weight:normal;font-stretch:normal;font-size:medium;line-height:125%;font-family:'Linux Libertine';-inkscape-font-specification:'Linux Libertine';letter-spacing:0px;word-spacing:0px;fill:#000000;fill-opacity:1;stroke:none;stroke-width:1px;stroke-linecap:butt;stroke-linejoin:miter;stroke-opacity:1"
         id="path4333"
         inkscape:connector-curvature="0" />
      <path
         d="m 264.77052,675.57106 q -0.20671,0 -0.41341,-0.17225 -0.20671,-0.18374 -0.20671,-0.39044 0,-0.60863 0.6316,-1.20577 0.64308,-0.60863 1.88331,-0.60863 1.03352,0 1.79143,0.45934 0.75792,0.45934 0.75792,1.49286 0,0.75791 -0.50528,1.38951 -0.50527,0.6316 -1.59621,1.41248 -1.19429,0.87275 -1.55029,2.11298 l 1.95221,0 q 0.26412,0 0.47082,-0.13781 0.2182,-0.12632 0.37896,-0.43638 0.16077,-0.29857 0.24116,-0.47082 0.0919,-0.16077 0.22967,-0.52824 0.37896,0 0.5627,0.11483 -0.16078,1.29765 -0.44786,2.20485 l -4.84607,0 q 0,-1.43545 2.02111,-2.98573 0.89572,-0.72347 1.26319,-1.25171 0.36748,-0.52824 0.36748,-1.40099 0,-1.27467 -1.18281,-1.27467 -0.91869,0 -1.12539,0.49379 -0.0459,0.11483 -0.0459,0.35599 0,0.22967 0,0.33302 -0.0919,0.49379 -0.6316,0.49379 z"
         style="font-style:normal;font-variant:normal;font-weight:normal;font-stretch:normal;font-size:medium;line-height:125%;font-family:'Linux Libertine';-inkscape-font-specification:'Linux Libertine';letter-spacing:0px;word-spacing:0px;fill:#000000;fill-opacity:1;stroke:none;stroke-width:1px;stroke-linecap:butt;stroke-linejoin:miter;stroke-opacity:1"
         id="path4335"
         inkscape:connector-curvature="0" />
      <path
         d="m 278.65414,678.4075 q -3.61732,0 -5.56952,-2.13594 -1.95221,-2.13594 -1.95221,-5.38579 0,-1.83737 0.65457,-3.46804 0.65456,-1.63066 1.83737,-2.7216 2.18187,-1.99814 5.05276,-1.99814 1.68808,0 3.29578,0.52824 1.61918,0.51677 1.86034,0.53973 0.35599,1.95221 0.51676,3.64029 -0.44786,0.22967 -0.78088,0.11484 -1.19429,-3.95035 -5.14464,-3.95035 -2.05556,0 -3.75512,2.09001 -1.401,1.72254 -1.401,4.77716 0,2.71012 1.5388,4.86903 1.5388,2.14742 3.82402,2.14742 1.64215,0 2.92831,-0.59714 1.28616,-0.60863 2.52638,-1.97517 0.35599,0 0.53973,0.35599 -2.42303,3.16946 -5.97145,3.16946 z"
         style="font-style:normal;font-variant:normal;font-weight:normal;font-stretch:normal;font-size:medium;line-height:125%;font-family:'Linux Libertine';-inkscape-font-specification:'Linux Libertine';letter-spacing:0px;word-spacing:0px;fill:#000000;fill-opacity:1;stroke:none;stroke-width:1px;stroke-linecap:butt;stroke-linejoin:miter;stroke-opacity:1"
         id="path4337"
         inkscape:connector-curvature="0" />
      <path
         d="m 289.83913,674.69831 q 0,-0.42489 -0.27561,-0.60862 -0.26412,-0.19522 -0.62011,-0.19522 -0.35599,0 -0.73495,0.16076 -0.36747,0.14929 -0.48231,0.40193 -0.023,0.0459 -0.0804,0.21818 -0.0459,0.16078 -0.0804,0.22968 -0.0344,0.0689 -0.16076,0.16076 -0.12632,0.0804 -0.32154,0.0804 -0.20671,0 -0.34451,-0.0919 -0.12632,-0.10335 -0.16077,-0.19522 -0.0345,-0.0919 -0.0345,-0.1378 0,-0.26412 0.21819,-0.57418 0.22967,-0.32154 0.87275,-0.6316 0.65456,-0.32153 1.59621,-0.32153 0.91868,0 1.45841,0.36747 0.53973,0.35599 0.53973,1.02204 0,0.94165 -1.20577,1.59621 0.7005,0.0689 1.28616,0.59715 0.59714,0.52824 0.59714,1.46989 0,1.19429 -0.91868,1.95221 -0.91869,0.75791 -2.35413,0.75791 -0.66605,0 -1.4699,-0.26412 -0.80385,-0.26412 -0.80385,-0.74643 0,-0.22967 0.17225,-0.37896 0.18374,-0.1378 0.41342,-0.1378 0.49379,0 0.70049,0.39044 0.2067,0.42489 1.09094,0.42489 0.67753,0 1.19429,-0.40192 0.51676,-0.39044 0.51676,-1.401 0,-1.43544 -1.75698,-1.43544 -0.0919,0 -0.47083,0.0459 -0.16077,-0.2067 -0.0459,-0.64307 1.66511,-0.22968 1.66511,-1.71106 z"
         style="font-style:normal;font-variant:normal;font-weight:normal;font-stretch:normal;font-size:medium;line-height:125%;font-family:'Linux Libertine';-inkscape-font-specification:'Linux Libertine';letter-spacing:0px;word-spacing:0px;fill:#000000;fill-opacity:1;stroke:none;stroke-width:1px;stroke-linecap:butt;stroke-linejoin:miter;stroke-opacity:1"
         id="path4339"
         inkscape:connector-curvature="0" />
    </g>
    <g
       id="g4413"
       transform="translate(28,-218)">
      <path
         d="m 145.19221,693.03756 q -1.95221,0 -1.95221,1.50434 l 0,5.38579 1.12539,0 q 1.90627,0 2.92831,-0.76939 1.02204,-0.78089 1.02204,-2.82496 0,-3.29578 -3.12353,-3.29578 z m -1.95221,11.6673 q 0,1.41247 0.36747,1.75698 0.36748,0.33302 1.67661,0.39044 0.0919,0.11484 0.0919,0.40193 0,0.2756 -0.0919,0.36747 -2.06705,-0.0459 -3.03166,-0.0459 -0.94166,0 -3.05463,0.0459 -0.11484,-0.0919 -0.11484,-0.36747 0,-0.28709 0.11484,-0.40193 1.32061,-0.0459 1.6766,-0.39044 0.36747,-0.34451 0.36747,-1.75698 l 0,-9.42801 q 0,-1.41248 -0.36747,-1.7455 -0.35599,-0.3445 -1.6766,-0.39044 -0.11484,-0.0919 -0.11484,-0.37896 0,-0.28709 0.11484,-0.40192 2.21633,0.0459 3.03166,0.0459 0.40192,0 1.37802,-0.0804 0.97611,-0.0804 1.56177,-0.0804 1.38951,0 2.35413,0.21819 0.96462,0.2067 1.71105,0.9072 1.25171,1.17132 1.25171,2.93979 0,1.61918 -1.02204,2.64122 -1.02204,1.02203 -2.11297,1.37802 l 2.97424,4.93794 q 0.53972,0.89572 1.03352,1.35506 0.49379,0.45934 1.21726,0.45934 0.16077,0.31005 0.023,0.56269 -0.33302,0.16078 -0.98759,0.16078 -1.8144,0 -3.10056,-2.09001 l -2.5149,-4.08815 q -0.28709,-0.47083 -0.8383,-0.67753 -0.55121,-0.21819 -1.91776,-0.21819 l 0,3.97331 z"
         style="font-style:normal;font-variant:normal;font-weight:normal;font-stretch:normal;font-size:medium;line-height:125%;font-family:'Linux Libertine';-inkscape-font-specification:'Linux Libertine';letter-spacing:0px;word-spacing:0px;fill:#000000;fill-opacity:1;stroke:none;stroke-width:1px;stroke-linecap:butt;stroke-linejoin:miter;stroke-opacity:1"
         id="path4341"
         inkscape:connector-curvature="0" />
      <path
         d="m 156.99731,704.09622 q 0,-0.42488 -0.27561,-0.60862 -0.26412,-0.19522 -0.62011,-0.19522 -0.35599,0 -0.73495,0.16076 -0.36748,0.14929 -0.48231,0.40193 -0.023,0.0459 -0.0804,0.21819 -0.0459,0.16077 -0.0804,0.22967 -0.0344,0.0689 -0.16077,0.16077 -0.12632,0.0804 -0.32154,0.0804 -0.2067,0 -0.34451,-0.0919 -0.12631,-0.10336 -0.16076,-0.19522 -0.0345,-0.0919 -0.0345,-0.1378 0,-0.26413 0.21819,-0.57419 0.22967,-0.32153 0.87275,-0.63159 0.65456,-0.32154 1.59621,-0.32154 0.91869,0 1.45842,0.36747 0.53973,0.356 0.53973,1.02204 0,0.94165 -1.20578,1.59621 0.7005,0.0689 1.28616,0.59715 0.59715,0.52825 0.59715,1.4699 0,1.19429 -0.91869,1.9522 -0.91868,0.75791 -2.35413,0.75791 -0.66604,0 -1.46989,-0.26411 -0.80385,-0.26413 -0.80385,-0.74644 0,-0.22967 0.17225,-0.37896 0.18374,-0.1378 0.41341,-0.1378 0.49379,0 0.7005,0.39044 0.2067,0.4249 1.09093,0.4249 0.67753,0 1.19429,-0.40193 0.51677,-0.39044 0.51677,-1.40099 0,-1.43545 -1.75699,-1.43545 -0.0919,0 -0.47083,0.0459 -0.16076,-0.2067 -0.0459,-0.64308 1.66512,-0.22967 1.66512,-1.71105 z"
         style="font-style:normal;font-variant:normal;font-weight:normal;font-stretch:normal;font-size:medium;line-height:125%;font-family:'Linux Libertine';-inkscape-font-specification:'Linux Libertine';letter-spacing:0px;word-spacing:0px;fill:#000000;fill-opacity:1;stroke:none;stroke-width:1px;stroke-linecap:butt;stroke-linejoin:miter;stroke-opacity:1"
         id="path4343"
         inkscape:connector-curvature="0" />
      <path
         d="m 168.22823,707.80542 q -3.61732,0 -5.56953,-2.13595 -1.95221,-2.13594 -1.95221,-5.38578 0,-1.83737 0.65457,-3.46804 0.65456,-1.63067 1.83737,-2.72161 2.18187,-1.99813 5.05277,-1.99813 1.68808,0 3.29577,0.52824 1.61919,0.51676 1.86035,0.53972 0.35599,1.95221 0.51675,3.6403 -0.44786,0.22966 -0.78088,0.11483 -1.19429,-3.95034 -5.14463,-3.95034 -2.05556,0 -3.75513,2.09 -1.40099,1.72254 -1.40099,4.77717 0,2.71011 1.53879,4.86903 1.5388,2.14742 3.82403,2.14742 1.64215,0 2.92831,-0.59714 1.28616,-0.60863 2.52638,-1.97518 0.35599,0 0.53973,0.35599 -2.42303,3.16947 -5.97145,3.16947 z"
         style="font-style:normal;font-variant:normal;font-weight:normal;font-stretch:normal;font-size:medium;line-height:125%;font-family:'Linux Libertine';-inkscape-font-specification:'Linux Libertine';letter-spacing:0px;word-spacing:0px;fill:#000000;fill-opacity:1;stroke:none;stroke-width:1px;stroke-linecap:butt;stroke-linejoin:miter;stroke-opacity:1"
         id="path4345"
         inkscape:connector-curvature="0" />
      <path
         d="m 178.20744,704.16513 q -0.35599,0 -1.33209,0.35599 -0.22967,-0.18374 -0.24115,-0.64308 1.48137,-0.53973 2.75605,-1.30913 0.26412,-0.1378 0.42489,0 l 0,5.61546 q 0,0.44786 0.0804,0.7005 0.0804,0.26412 0.27561,0.39044 0.20671,0.1378 0.39044,0.17226 0.19522,0.0344 0.53973,0.0574 0.18373,0.35599 0,0.67754 -0.7005,-0.023 -1.97517,-0.023 -1.55028,0 -2.25078,0.023 -0.20671,-0.33303 0,-0.67754 0.58566,-0.023 0.87275,-0.0919 0.29857,-0.0689 0.53973,-0.36747 0.25264,-0.29857 0.25264,-0.86126 l 0,-3.05463 q 0,-0.58567 -0.0689,-0.7694 -0.0574,-0.19522 -0.26412,-0.19522 z"
         style="font-style:normal;font-variant:normal;font-weight:normal;font-stretch:normal;font-size:medium;line-height:125%;font-family:'Linux Libertine';-inkscape-font-specification:'Linux Libertine';letter-spacing:0px;word-spacing:0px;fill:#000000;fill-opacity:1;stroke:none;stroke-width:1px;stroke-linecap:butt;stroke-linejoin:miter;stroke-opacity:1"
         id="path4347"
         inkscape:connector-curvature="0" />
    </g>
    <g
       id="g4419"
       transform="translate(24,-244)">
      <path
         d="m 200.40517,693.03756 q -1.95221,0 -1.95221,1.50434 l 0,5.38579 1.12539,0 q 1.90627,0 2.9283,-0.76939 1.02204,-0.78089 1.02204,-2.82496 0,-3.29578 -3.12352,-3.29578 z m -1.95221,11.6673 q 0,1.41247 0.36747,1.75698 0.36747,0.33302 1.6766,0.39044 0.0919,0.11484 0.0919,0.40193 0,0.2756 -0.0919,0.36747 -2.06704,-0.0459 -3.03166,-0.0459 -0.94165,0 -3.05463,0.0459 -0.11483,-0.0919 -0.11483,-0.36747 0,-0.28709 0.11483,-0.40193 1.32062,-0.0459 1.67661,-0.39044 0.36747,-0.34451 0.36747,-1.75698 l 0,-9.42801 q 0,-1.41248 -0.36747,-1.7455 -0.35599,-0.3445 -1.67661,-0.39044 -0.11483,-0.0919 -0.11483,-0.37896 0,-0.28709 0.11483,-0.40192 2.21633,0.0459 3.03166,0.0459 0.40193,0 1.37803,-0.0804 0.97611,-0.0804 1.56176,-0.0804 1.38951,0 2.35414,0.21819 0.96461,0.2067 1.71105,0.9072 1.2517,1.17132 1.2517,2.93979 0,1.61918 -1.02203,2.64122 -1.02204,1.02203 -2.11298,1.37802 l 2.97424,4.93794 q 0.53973,0.89572 1.03353,1.35506 0.49379,0.45934 1.21725,0.45934 0.16077,0.31005 0.023,0.56269 -0.33302,0.16078 -0.98759,0.16078 -1.81439,0 -3.10055,-2.09001 l -2.51491,-4.08815 q -0.28708,-0.47083 -0.83829,-0.67753 -0.55122,-0.21819 -1.91776,-0.21819 l 0,3.97331 z"
         style="font-style:normal;font-variant:normal;font-weight:normal;font-stretch:normal;font-size:medium;line-height:125%;font-family:'Linux Libertine';-inkscape-font-specification:'Linux Libertine';letter-spacing:0px;word-spacing:0px;fill:#000000;fill-opacity:1;stroke:none;stroke-width:1px;stroke-linecap:butt;stroke-linejoin:miter;stroke-opacity:1"
         id="path4349"
         inkscape:connector-curvature="0" />
      <path
         d="m 212.21026,704.09622 q 0,-0.42488 -0.2756,-0.60862 -0.26413,-0.19522 -0.62012,-0.19522 -0.35599,0 -0.73494,0.16076 -0.36748,0.14929 -0.48231,0.40193 -0.023,0.0459 -0.0804,0.21819 -0.0459,0.16077 -0.0804,0.22967 -0.0345,0.0689 -0.16077,0.16077 -0.12632,0.0804 -0.32154,0.0804 -0.2067,0 -0.34451,-0.0919 -0.12632,-0.10336 -0.16077,-0.19522 -0.0344,-0.0919 -0.0344,-0.1378 0,-0.26413 0.21819,-0.57419 0.22967,-0.32153 0.87275,-0.63159 0.65456,-0.32154 1.59621,-0.32154 0.91869,0 1.45842,0.36747 0.53972,0.356 0.53972,1.02204 0,0.94165 -1.20577,1.59621 0.7005,0.0689 1.28616,0.59715 0.59715,0.52825 0.59715,1.4699 0,1.19429 -0.91869,1.9522 -0.91868,0.75791 -2.35413,0.75791 -0.66605,0 -1.4699,-0.26411 -0.80385,-0.26413 -0.80385,-0.74644 0,-0.22967 0.17226,-0.37896 0.18373,-0.1378 0.41341,-0.1378 0.49379,0 0.70049,0.39044 0.2067,0.4249 1.09094,0.4249 0.67753,0 1.19429,-0.40193 0.51676,-0.39044 0.51676,-1.40099 0,-1.43545 -1.75698,-1.43545 -0.0919,0 -0.47083,0.0459 -0.16077,-0.2067 -0.0459,-0.64308 1.66511,-0.22967 1.66511,-1.71105 z"
         style="font-style:normal;font-variant:normal;font-weight:normal;font-stretch:normal;font-size:medium;line-height:125%;font-family:'Linux Libertine';-inkscape-font-specification:'Linux Libertine';letter-spacing:0px;word-spacing:0px;fill:#000000;fill-opacity:1;stroke:none;stroke-width:1px;stroke-linecap:butt;stroke-linejoin:miter;stroke-opacity:1"
         id="path4351"
         inkscape:connector-curvature="0" />
      <path
         d="m 223.44118,707.80542 q -3.61732,0 -5.56952,-2.13595 -1.95221,-2.13594 -1.95221,-5.38578 0,-1.83737 0.65457,-3.46804 0.65456,-1.63067 1.83737,-2.72161 2.18187,-1.99813 5.05276,-1.99813 1.68809,0 3.29578,0.52824 1.61919,0.51676 1.86034,0.53972 0.35599,1.95221 0.51676,3.6403 -0.44786,0.22966 -0.78088,0.11483 -1.19429,-3.95034 -5.14463,-3.95034 -2.05557,0 -3.75513,2.09 -1.40099,1.72254 -1.40099,4.77717 0,2.71011 1.53879,4.86903 1.5388,2.14742 3.82403,2.14742 1.64215,0 2.92831,-0.59714 1.28616,-0.60863 2.52638,-1.97518 0.35599,0 0.53972,0.35599 -2.42302,3.16947 -5.97145,3.16947 z"
         style="font-style:normal;font-variant:normal;font-weight:normal;font-stretch:normal;font-size:medium;line-height:125%;font-family:'Linux Libertine';-inkscape-font-specification:'Linux Libertine';letter-spacing:0px;word-spacing:0px;fill:#000000;fill-opacity:1;stroke:none;stroke-width:1px;stroke-linecap:butt;stroke-linejoin:miter;stroke-opacity:1"
         id="path4353"
         inkscape:connector-curvature="0" />
      <path
         d="m 231.97347,704.96898 q -0.2067,0 -0.41341,-0.17226 -0.2067,-0.18373 -0.2067,-0.39044 0,-0.60863 0.63159,-1.20577 0.64308,-0.60863 1.88331,-0.60863 1.03352,0 1.79143,0.45934 0.75792,0.45934 0.75792,1.49286 0,0.75792 -0.50528,1.38951 -0.50527,0.6316 -1.59621,1.41249 -1.19429,0.87274 -1.55028,2.11297 l 1.9522,0 q 0.26412,0 0.47083,-0.13781 0.21819,-0.12631 0.37895,-0.43637 0.16077,-0.29857 0.24116,-0.47083 0.0919,-0.16076 0.22967,-0.52824 0.37896,0 0.5627,0.11484 -0.16077,1.29764 -0.44786,2.20484 l -4.84607,0 q 0,-1.43545 2.02111,-2.98573 0.89572,-0.72346 1.26319,-1.2517 0.36748,-0.52825 0.36748,-1.401 0,-1.27467 -1.18281,-1.27467 -0.91868,0 -1.12539,0.49379 -0.0459,0.11483 -0.0459,0.35599 0,0.22967 0,0.33302 -0.0919,0.4938 -0.63159,0.4938 z"
         style="font-style:normal;font-variant:normal;font-weight:normal;font-stretch:normal;font-size:medium;line-height:125%;font-family:'Linux Libertine';-inkscape-font-specification:'Linux Libertine';letter-spacing:0px;word-spacing:0px;fill:#000000;fill-opacity:1;stroke:none;stroke-width:1px;stroke-linecap:butt;stroke-linejoin:miter;stroke-opacity:1"
         id="path4355"
         inkscape:connector-curvature="0" />
    </g>
    <g
       id="g4425"
       transform="translate(20,-270)">
      <path
         d="m 255.61812,693.03756 q -1.95221,0 -1.95221,1.50434 l 0,5.38579 1.1254,0 q 1.90626,0 2.9283,-0.76939 1.02204,-0.78089 1.02204,-2.82496 0,-3.29578 -3.12353,-3.29578 z m -1.95221,11.6673 q 0,1.41247 0.36748,1.75698 0.36747,0.33302 1.6766,0.39044 0.0919,0.11484 0.0919,0.40193 0,0.2756 -0.0919,0.36747 -2.06704,-0.0459 -3.03166,-0.0459 -0.94165,0 -3.05463,0.0459 -0.11483,-0.0919 -0.11483,-0.36747 0,-0.28709 0.11483,-0.40193 1.32061,-0.0459 1.6766,-0.39044 0.36748,-0.34451 0.36748,-1.75698 l 0,-9.42801 q 0,-1.41248 -0.36748,-1.7455 -0.35599,-0.3445 -1.6766,-0.39044 -0.11483,-0.0919 -0.11483,-0.37896 0,-0.28709 0.11483,-0.40192 2.21633,0.0459 3.03166,0.0459 0.40193,0 1.37803,-0.0804 0.9761,-0.0804 1.56176,-0.0804 1.38951,0 2.35413,0.21819 0.96462,0.2067 1.71106,0.9072 1.2517,1.17132 1.2517,2.93979 0,1.61918 -1.02204,2.64122 -1.02203,1.02203 -2.11297,1.37802 l 2.97424,4.93794 q 0.53973,0.89572 1.03352,1.35506 0.4938,0.45934 1.21726,0.45934 0.16077,0.31005 0.023,0.56269 -0.33302,0.16078 -0.98759,0.16078 -1.8144,0 -3.10055,-2.09001 L 256.422,701.6272 q -0.28709,-0.47083 -0.8383,-0.67753 -0.55121,-0.21819 -1.91775,-0.21819 l 0,3.97331 z"
         style="font-style:normal;font-variant:normal;font-weight:normal;font-stretch:normal;font-size:medium;line-height:125%;font-family:'Linux Libertine';-inkscape-font-specification:'Linux Libertine';letter-spacing:0px;word-spacing:0px;fill:#000000;fill-opacity:1;stroke:none;stroke-width:1px;stroke-linecap:butt;stroke-linejoin:miter;stroke-opacity:1"
         id="path4357"
         inkscape:connector-curvature="0" />
      <path
         d="m 267.42322,704.09622 q 0,-0.42488 -0.27561,-0.60862 -0.26412,-0.19522 -0.62011,-0.19522 -0.35599,0 -0.73495,0.16076 -0.36747,0.14929 -0.4823,0.40193 -0.023,0.0459 -0.0804,0.21819 -0.0459,0.16077 -0.0804,0.22967 -0.0344,0.0689 -0.16076,0.16077 -0.12632,0.0804 -0.32154,0.0804 -0.20671,0 -0.34451,-0.0919 -0.12632,-0.10336 -0.16077,-0.19522 -0.0345,-0.0919 -0.0345,-0.1378 0,-0.26413 0.21819,-0.57419 0.22967,-0.32153 0.87275,-0.63159 0.65456,-0.32154 1.59621,-0.32154 0.91868,0 1.45841,0.36747 0.53973,0.356 0.53973,1.02204 0,0.94165 -1.20577,1.59621 0.7005,0.0689 1.28616,0.59715 0.59714,0.52825 0.59714,1.4699 0,1.19429 -0.91868,1.9522 -0.91869,0.75791 -2.35413,0.75791 -0.66605,0 -1.4699,-0.26411 -0.80385,-0.26413 -0.80385,-0.74644 0,-0.22967 0.17225,-0.37896 0.18374,-0.1378 0.41342,-0.1378 0.49379,0 0.70049,0.39044 0.2067,0.4249 1.09094,0.4249 0.67753,0 1.19429,-0.40193 0.51676,-0.39044 0.51676,-1.40099 0,-1.43545 -1.75698,-1.43545 -0.0919,0 -0.47083,0.0459 -0.16077,-0.2067 -0.0459,-0.64308 1.66511,-0.22967 1.66511,-1.71105 z"
         style="font-style:normal;font-variant:normal;font-weight:normal;font-stretch:normal;font-size:medium;line-height:125%;font-family:'Linux Libertine';-inkscape-font-specification:'Linux Libertine';letter-spacing:0px;word-spacing:0px;fill:#000000;fill-opacity:1;stroke:none;stroke-width:1px;stroke-linecap:butt;stroke-linejoin:miter;stroke-opacity:1"
         id="path4359"
         inkscape:connector-curvature="0" />
      <path
         d="m 278.65414,707.80542 q -3.61732,0 -5.56952,-2.13595 -1.95221,-2.13594 -1.95221,-5.38578 0,-1.83737 0.65457,-3.46804 0.65456,-1.63067 1.83737,-2.72161 2.18187,-1.99813 5.05276,-1.99813 1.68808,0 3.29578,0.52824 1.61918,0.51676 1.86034,0.53972 0.35599,1.95221 0.51676,3.6403 -0.44786,0.22966 -0.78088,0.11483 -1.19429,-3.95034 -5.14464,-3.95034 -2.05556,0 -3.75512,2.09 -1.401,1.72254 -1.401,4.77717 0,2.71011 1.5388,4.86903 1.5388,2.14742 3.82402,2.14742 1.64215,0 2.92831,-0.59714 1.28616,-0.60863 2.52638,-1.97518 0.35599,0 0.53973,0.35599 -2.42303,3.16947 -5.97145,3.16947 z"
         style="font-style:normal;font-variant:normal;font-weight:normal;font-stretch:normal;font-size:medium;line-height:125%;font-family:'Linux Libertine';-inkscape-font-specification:'Linux Libertine';letter-spacing:0px;word-spacing:0px;fill:#000000;fill-opacity:1;stroke:none;stroke-width:1px;stroke-linecap:butt;stroke-linejoin:miter;stroke-opacity:1"
         id="path4361"
         inkscape:connector-curvature="0" />
      <path
         d="m 289.83913,704.09622 q 0,-0.42488 -0.27561,-0.60862 -0.26412,-0.19522 -0.62011,-0.19522 -0.35599,0 -0.73495,0.16076 -0.36747,0.14929 -0.48231,0.40193 -0.023,0.0459 -0.0804,0.21819 -0.0459,0.16077 -0.0804,0.22967 -0.0344,0.0689 -0.16076,0.16077 -0.12632,0.0804 -0.32154,0.0804 -0.20671,0 -0.34451,-0.0919 -0.12632,-0.10336 -0.16077,-0.19522 -0.0345,-0.0919 -0.0345,-0.1378 0,-0.26413 0.21819,-0.57419 0.22967,-0.32153 0.87275,-0.63159 0.65456,-0.32154 1.59621,-0.32154 0.91868,0 1.45841,0.36747 0.53973,0.356 0.53973,1.02204 0,0.94165 -1.20577,1.59621 0.7005,0.0689 1.28616,0.59715 0.59714,0.52825 0.59714,1.4699 0,1.19429 -0.91868,1.9522 -0.91869,0.75791 -2.35413,0.75791 -0.66605,0 -1.4699,-0.26411 -0.80385,-0.26413 -0.80385,-0.74644 0,-0.22967 0.17225,-0.37896 0.18374,-0.1378 0.41342,-0.1378 0.49379,0 0.70049,0.39044 0.2067,0.4249 1.09094,0.4249 0.67753,0 1.19429,-0.40193 0.51676,-0.39044 0.51676,-1.40099 0,-1.43545 -1.75698,-1.43545 -0.0919,0 -0.47083,0.0459 -0.16077,-0.2067 -0.0459,-0.64308 1.66511,-0.22967 1.66511,-1.71105 z"
         style="font-style:normal;font-variant:normal;font-weight:normal;font-stretch:normal;font-size:medium;line-height:125%;font-family:'Linux Libertine';-inkscape-font-specification:'Linux Libertine';letter-spacing:0px;word-spacing:0px;fill:#000000;fill-opacity:1;stroke:none;stroke-width:1px;stroke-linecap:butt;stroke-linejoin:miter;stroke-opacity:1"
         id="path4363"
         inkscape:connector-curvature="0" />
    </g>
  </g>
</svg>
