<?xml version="1.0" encoding="UTF-8" standalone="no"?>
<!-- Created with Inkscape (http://www.inkscape.org/) -->

<svg
   xmlns:dc="http://purl.org/dc/elements/1.1/"
   xmlns:cc="http://creativecommons.org/ns#"
   xmlns:rdf="http://www.w3.org/1999/02/22-rdf-syntax-ns#"
   xmlns:svg="http://www.w3.org/2000/svg"
   xmlns="http://www.w3.org/2000/svg"
   xmlns:sodipodi="http://sodipodi.sourceforge.net/DTD/sodipodi-0.dtd"
   xmlns:inkscape="http://www.inkscape.org/namespaces/inkscape"
   width="58.100391mm"
   height="76.325157mm"
   viewBox="0 0 205.86753 270.44347"
   id="svg2"
   version="1.1"
   inkscape:version="0.91 r13725"
   sodipodi:docname="columns.svg">
  <defs
     id="defs4" />
  <sodipodi:namedview
     id="base"
     pagecolor="#ffffff"
     bordercolor="#666666"
     borderopacity="1.0"
     inkscape:pageopacity="0.0"
     inkscape:pageshadow="2"
     inkscape:zoom="1"
     inkscape:cx="224.38676"
     inkscape:cy="73.296041"
     inkscape:document-units="px"
     inkscape:current-layer="layer1"
     showgrid="false"
     fit-margin-top="0"
     fit-margin-left="0"
     fit-margin-right="0"
     fit-margin-bottom="0"
     inkscape:window-width="1600"
     inkscape:window-height="1138"
     inkscape:window-x="1600"
     inkscape:window-y="38"
     inkscape:window-maximized="0"
     inkscape:object-paths="false" />
  <metadata
     id="metadata7">
    <rdf:RDF>
      <cc:Work
         rdf:about="">
        <dc:format>image/svg+xml</dc:format>
        <dc:type
           rdf:resource="http://purl.org/dc/dcmitype/StillImage" />
        <dc:title />
      </cc:Work>
    </rdf:RDF>
  </metadata>
  <g
     inkscape:label="Layer 1"
     inkscape:groupmode="layer"
     id="layer1"
     transform="translate(-4.3069067,-4.640164)">
    <g
       id="g4329"
       transform="matrix(0.57609379,0,0,0.57609379,-108.78428,-181.23083)">
      <path
         style="fill:#cd8959;fill-opacity:1;fill-rule:evenodd;stroke:none;stroke-width:5;stroke-linecap:butt;stroke-linejoin:miter;stroke-miterlimit:4;stroke-dasharray:none;stroke-opacity:1"
         d="m 376.41421,722.92212 86.10672,25.52445 19.63867,-79.83446 1.09358,31.24991 L 462.5,788.9162 375.00009,762.36169 Z"
         id="path4321"
         inkscape:connector-curvature="0"
         sodipodi:nodetypes="ccccccc" />
      <path
         sodipodi:nodetypes="ccccccc"
         inkscape:connector-curvature="0"
         id="path4323"
         d="m 376.41421,682.92212 86.10672,25.52445 19.63867,-79.83446 1.09358,31.24991 L 462.5,748.9162 375.00009,722.36169 Z"
         style="fill:#cd8959;fill-opacity:1;fill-rule:evenodd;stroke:none;stroke-width:5;stroke-linecap:butt;stroke-linejoin:miter;stroke-miterlimit:4;stroke-dasharray:none;stroke-opacity:1" />
      <path
         style="fill:#cd8959;fill-opacity:1;fill-rule:evenodd;stroke:none;stroke-width:5;stroke-linecap:butt;stroke-linejoin:miter;stroke-miterlimit:4;stroke-dasharray:none;stroke-opacity:1"
         d="m 376.41421,642.92212 86.10672,25.52445 19.63867,-79.83446 1.09358,31.24991 L 462.5,708.9162 375.00009,682.36169 Z"
         id="path4325"
         inkscape:connector-curvature="0"
         sodipodi:nodetypes="ccccccc" />
      <path
         sodipodi:nodetypes="ccccccc"
         inkscape:connector-curvature="0"
         id="path4327"
         d="m 376.41421,602.92212 86.10672,25.52445 19.63867,-79.83446 1.09358,31.24991 L 462.5,668.9162 375.00009,642.36169 Z"
         style="fill:#cd8959;fill-opacity:1;fill-rule:evenodd;stroke:none;stroke-width:5;stroke-linecap:butt;stroke-linejoin:miter;stroke-miterlimit:4;stroke-dasharray:none;stroke-opacity:1" />
      <path
         sodipodi:nodetypes="ccccccc"
         inkscape:connector-curvature="0"
         id="path4313"
         d="m 373.58579,722.61703 -86.46022,26.83816 -19.99219,-77.81364 -0.38638,28.22047 20.75315,89.05418 87.49976,-26.55451 z"
         style="fill:#eeeeee;fill-opacity:1;fill-rule:evenodd;stroke:none;stroke-width:5;stroke-linecap:butt;stroke-linejoin:miter;stroke-miterlimit:4;stroke-dasharray:none;stroke-opacity:1" />
      <path
         style="fill:#eeeeee;fill-opacity:1;fill-rule:evenodd;stroke:none;stroke-width:5;stroke-linecap:butt;stroke-linejoin:miter;stroke-miterlimit:4;stroke-dasharray:none;stroke-opacity:1"
         d="m 373.58579,682.61703 -86.46022,26.83816 -19.99219,-77.81364 -0.38638,28.22047 20.75315,89.05418 87.49976,-26.55451 z"
         id="path4315"
         inkscape:connector-curvature="0"
         sodipodi:nodetypes="ccccccc" />
      <path
         sodipodi:nodetypes="ccccccc"
         inkscape:connector-curvature="0"
         id="path4317"
         d="m 373.58579,642.61703 -86.46022,26.83816 -19.99219,-77.81364 -0.38638,28.22047 20.75315,89.05418 87.49976,-26.55451 z"
         style="fill:#eeeeee;fill-opacity:1;fill-rule:evenodd;stroke:none;stroke-width:5;stroke-linecap:butt;stroke-linejoin:miter;stroke-miterlimit:4;stroke-dasharray:none;stroke-opacity:1" />
      <path
         style="fill:#eeeeee;fill-opacity:1;fill-rule:evenodd;stroke:none;stroke-width:5;stroke-linecap:butt;stroke-linejoin:miter;stroke-miterlimit:4;stroke-dasharray:none;stroke-opacity:1"
         d="m 373.58579,602.61703 -86.46022,26.83816 -19.99219,-77.81364 -0.38638,28.22047 20.75315,89.05418 87.49976,-26.55451 z"
         id="path4319"
         inkscape:connector-curvature="0"
         sodipodi:nodetypes="ccccccc" />
      <path
         sodipodi:nodetypes="ccccc"
         inkscape:connector-curvature="0"
         id="path4299"
         d="m 483.18734,658.36725 0.0658,41.49495 66.74682,-62.5 1.84245,-40.08059 z"
         style="fill:#32a679;fill-opacity:1;fill-rule:evenodd;stroke:none;stroke-width:5;stroke-linecap:butt;stroke-linejoin:miter;stroke-miterlimit:4;stroke-dasharray:none;stroke-opacity:1" />
      <path
         style="fill:#32a679;fill-opacity:1;fill-rule:evenodd;stroke:none;stroke-width:5;stroke-linecap:butt;stroke-linejoin:miter;stroke-miterlimit:4;stroke-dasharray:none;stroke-opacity:1"
         d="m 483.18734,618.36725 0.0658,41.49495 66.74682,-62.5 1.84245,-40.08059 z"
         id="path4307"
         inkscape:connector-curvature="0"
         sodipodi:nodetypes="ccccc" />
      <path
         sodipodi:nodetypes="ccccc"
         inkscape:connector-curvature="0"
         id="path4309"
         d="m 483.18734,578.36725 0.0658,41.49495 66.74682,-62.5 1.84245,-40.08059 z"
         style="fill:#32a679;fill-opacity:1;fill-rule:evenodd;stroke:none;stroke-width:5;stroke-linecap:butt;stroke-linejoin:miter;stroke-miterlimit:4;stroke-dasharray:none;stroke-opacity:1" />
      <path
         style="fill:#32a679;fill-opacity:1;fill-rule:evenodd;stroke:none;stroke-width:5;stroke-linecap:butt;stroke-linejoin:miter;stroke-miterlimit:4;stroke-dasharray:none;stroke-opacity:1"
         d="m 483.18734,538.36725 0.0658,41.49495 66.74682,-62.5 1.84245,-40.08059 z"
         id="path4311"
         inkscape:connector-curvature="0"
         sodipodi:nodetypes="ccccc" />
      <path
         sodipodi:nodetypes="ccccc"
         inkscape:connector-curvature="0"
         id="path4301"
         d="m 266.10555,617.8683 0.64127,41.9939 -66.74682,-62.5 0.98598,-41.28665 z"
         style="fill:#2495be;fill-opacity:1;fill-rule:evenodd;stroke:none;stroke-width:5;stroke-linecap:butt;stroke-linejoin:miter;stroke-miterlimit:4;stroke-dasharray:none;stroke-opacity:1" />
      <path
         style="fill:#2495be;fill-opacity:1;fill-rule:evenodd;stroke:none;stroke-width:5;stroke-linecap:butt;stroke-linejoin:miter;stroke-miterlimit:4;stroke-dasharray:none;stroke-opacity:1"
         d="m 266.10555,577.8683 0.64127,41.9939 -66.74682,-62.5 0.98598,-41.28665 z"
         id="path4303"
         inkscape:connector-curvature="0"
         sodipodi:nodetypes="ccccc" />
      <path
         sodipodi:nodetypes="ccccc"
         inkscape:connector-curvature="0"
         id="path4305"
         d="m 266.10555,537.8683 0.64127,41.9939 -66.74682,-62.5 0.98598,-41.28665 z"
         style="fill:#2495be;fill-opacity:1;fill-rule:evenodd;stroke:none;stroke-width:5;stroke-linecap:butt;stroke-linejoin:miter;stroke-miterlimit:4;stroke-dasharray:none;stroke-opacity:1" />
      <path
         style="fill:#2495be;fill-opacity:1;fill-rule:evenodd;stroke:none;stroke-width:5;stroke-linecap:butt;stroke-linejoin:miter;stroke-miterlimit:4;stroke-dasharray:none;stroke-opacity:1"
         d="m 266.10555,657.8683 0.64127,41.9939 -66.74682,-62.5 0.98598,-41.28665 z"
         id="path4293"
         inkscape:connector-curvature="0"
         sodipodi:nodetypes="ccccc" />
      <path
         style="fill:none;fill-opacity:1;fill-rule:evenodd;stroke:#000000;stroke-width:5;stroke-linecap:butt;stroke-linejoin:miter;stroke-miterlimit:4;stroke-dasharray:none;stroke-opacity:1"
         d="m 198.01517,635.53811 68.73092,64.32322 20.75391,89.05469 87.5,-26.55469 87.5,26.55469 20.7539,-89.05469 68.65771,-64.2942"
         id="path4287"
         inkscape:connector-curvature="0"
         sodipodi:nodetypes="ccccccc" />
      <path
         sodipodi:nodetypes="ccccccc"
         inkscape:connector-curvature="0"
         id="path4269"
         d="m 200,597.36133 66.74609,62.5 20.75391,89.05469 87.5,-26.55469 87.5,26.55469 20.7539,-89.05469 66.7461,-62.5"
         style="fill:none;fill-opacity:1;fill-rule:evenodd;stroke:#000000;stroke-width:5;stroke-linecap:butt;stroke-linejoin:miter;stroke-miterlimit:4;stroke-dasharray:none;stroke-opacity:1" />
      <path
         style="fill:none;fill-opacity:1;fill-rule:evenodd;stroke:#000000;stroke-width:5;stroke-linecap:butt;stroke-linejoin:miter;stroke-miterlimit:4;stroke-dasharray:none;stroke-opacity:1"
         d="m 200,557.36133 66.74609,62.5 20.75391,89.05469 87.5,-26.55469 87.5,26.55469 20.7539,-89.05469 66.7461,-62.5"
         id="path4267"
         inkscape:connector-curvature="0"
         sodipodi:nodetypes="ccccccc" />
      <path
         sodipodi:nodetypes="ccccccc"
         inkscape:connector-curvature="0"
         id="path4258"
         d="m 200,517.36133 66.74609,62.5 20.75391,89.05469 87.5,-26.55469 87.5,26.55469 20.7539,-89.05469 66.7461,-62.5"
         style="fill:none;fill-opacity:1;fill-rule:evenodd;stroke:#000000;stroke-width:5;stroke-linecap:butt;stroke-linejoin:miter;stroke-miterlimit:4;stroke-dasharray:none;stroke-opacity:1" />
      <path
         sodipodi:nodetypes="ccccc"
         inkscape:connector-curvature="0"
         id="path4146"
         d="m 375,477.3622 0,-125 -87.5,-26.55444 -20.753,89.05444 z"
         style="fill:#cd656c;fill-opacity:1;fill-rule:evenodd;stroke:#000000;stroke-width:5;stroke-linecap:butt;stroke-linejoin:miter;stroke-miterlimit:4;stroke-dasharray:none;stroke-opacity:1" />
      <path
         style="fill:#ccad47;fill-opacity:1;fill-rule:evenodd;stroke:#000000;stroke-width:5;stroke-linecap:butt;stroke-linejoin:miter;stroke-miterlimit:4;stroke-dasharray:none;stroke-opacity:1"
         d="m 375,477.3622 0,-125 87.5,-26.55444 20.753,89.05444 z"
         id="path4148"
         inkscape:connector-curvature="0"
         sodipodi:nodetypes="ccccc" />
      <path
         style="fill:#32a679;fill-opacity:1;fill-rule:evenodd;stroke:#000000;stroke-width:5;stroke-linecap:butt;stroke-linejoin:miter;stroke-miterlimit:4;stroke-dasharray:none;stroke-opacity:1"
         d="m 375,477.3622 108.25318,62.5 66.74682,-62.5 -66.74691,-62.49985 z"
         id="path4150"
         inkscape:connector-curvature="0"
         sodipodi:nodetypes="ccccc" />
      <path
         sodipodi:nodetypes="ccccc"
         inkscape:connector-curvature="0"
         id="path4152"
         d="M 375,477.3622 483.25318,539.86202 462.5,628.9162 375.00009,602.36169 Z"
         style="fill:#cd8959;fill-opacity:1;fill-rule:evenodd;stroke:#000000;stroke-width:5;stroke-linecap:butt;stroke-linejoin:miter;stroke-miterlimit:4;stroke-dasharray:none;stroke-opacity:1" />
      <path
         sodipodi:nodetypes="ccccc"
         inkscape:connector-curvature="0"
         id="path4154"
         d="m 375,477.3622 -108.25318,62.5 -66.74682,-62.5 66.74691,-62.49985 z"
         style="fill:#2495be;fill-opacity:1;fill-rule:evenodd;stroke:#000000;stroke-width:5;stroke-linecap:butt;stroke-linejoin:miter;stroke-miterlimit:4;stroke-dasharray:none;stroke-opacity:1" />
      <path
         style="fill:#eeeeee;fill-opacity:1;fill-rule:evenodd;stroke:#000000;stroke-width:5;stroke-linecap:butt;stroke-linejoin:miter;stroke-miterlimit:4;stroke-dasharray:none;stroke-opacity:1"
         d="m 375,477.3622 -108.253,62.49982 20.75315,89.05418 87.49976,-26.55451 z"
         id="path4156"
         inkscape:connector-curvature="0"
         sodipodi:nodetypes="ccccc" />
      <path
         d="m 375.00006,546.83228 a 69.470062,69.470062 0 0 1 -60.16284,-34.73504 69.470062,69.470062 0 0 1 0,-69.47006 69.470062,69.470062 0 0 1 60.16284,-34.73503"
         sodipodi:open="true"
         sodipodi:end="4.712389"
         sodipodi:start="1.5707963"
         sodipodi:ry="69.470062"
         sodipodi:rx="69.470062"
         sodipodi:cy="477.36221"
         sodipodi:cx="375.00006"
         sodipodi:type="arc"
         id="path4140"
         style="opacity:1;fill:#2495be;fill-opacity:1;stroke:#000000;stroke-width:5;stroke-linecap:round;stroke-linejoin:round;stroke-miterlimit:4;stroke-dasharray:none;stroke-dashoffset:0;stroke-opacity:1" />
      <path
         style="opacity:1;fill:#2495be;fill-opacity:1;stroke:#000000;stroke-width:5;stroke-linecap:round;stroke-linejoin:round;stroke-miterlimit:4;stroke-dasharray:none;stroke-dashoffset:0;stroke-opacity:1"
         id="path4158"
         sodipodi:type="arc"
         sodipodi:cx="375.00006"
         sodipodi:cy="477.36221"
         sodipodi:rx="69.470062"
         sodipodi:ry="69.470062"
         sodipodi:start="4.712389"
         sodipodi:end="1.5707963"
         sodipodi:open="true"
         d="m 375.00006,407.89215 a 69.470062,69.470062 0 0 1 69.47006,69.47006 69.470062,69.470062 0 0 1 -69.47006,69.47007" />
      <path
         sodipodi:nodetypes="cc"
         inkscape:connector-curvature="0"
         id="path4160"
         d="m 375.00006,545.42876 0,-136.5277"
         style="fill:none;fill-rule:evenodd;stroke:#000000;stroke-width:5;stroke-linecap:butt;stroke-linejoin:miter;stroke-miterlimit:4;stroke-dasharray:none;stroke-opacity:1" />
      <path
         sodipodi:nodetypes="cc"
         inkscape:connector-curvature="0"
         id="path4279"
         d="m 198.84218,637.36227 0,-159.99783"
         style="fill:none;fill-rule:evenodd;stroke:#000000;stroke-width:5;stroke-linecap:butt;stroke-linejoin:miter;stroke-miterlimit:4;stroke-dasharray:none;stroke-opacity:1" />
      <path
         style="fill:none;fill-rule:evenodd;stroke:#000000;stroke-width:5;stroke-linecap:butt;stroke-linejoin:miter;stroke-miterlimit:4;stroke-dasharray:none;stroke-opacity:1"
         d="m 266.94573,700.94254 0,-159.99783"
         id="path4281"
         inkscape:connector-curvature="0"
         sodipodi:nodetypes="cc" />
      <path
         style="fill:none;fill-rule:evenodd;stroke:#000000;stroke-width:5;stroke-linecap:butt;stroke-linejoin:miter;stroke-miterlimit:4;stroke-dasharray:none;stroke-opacity:1"
         d="m 551.14396,637.36227 0,-159.99783"
         id="path4283"
         inkscape:connector-curvature="0"
         sodipodi:nodetypes="cc" />
      <path
         sodipodi:nodetypes="cc"
         inkscape:connector-curvature="0"
         id="path4285"
         d="m 483.03412,700.94254 0,-159.99783"
         style="fill:none;fill-rule:evenodd;stroke:#000000;stroke-width:5;stroke-linecap:butt;stroke-linejoin:miter;stroke-miterlimit:4;stroke-dasharray:none;stroke-opacity:1" />
      <path
         style="fill:none;fill-rule:evenodd;stroke:#000000;stroke-width:5;stroke-linecap:butt;stroke-linejoin:miter;stroke-miterlimit:4;stroke-dasharray:none;stroke-opacity:1"
         d="m 375.00006,762.67876 0,-159.0277"
         id="path4291"
         inkscape:connector-curvature="0"
         sodipodi:nodetypes="cc" />
    </g>
    <g
       id="g4376"
       transform="translate(653,169)">
      <path
         d="m -513.81809,-142.54261 1.23047,1.23047 0,10.85938 -3.30078,0 0,-6.44532 -16.83594,16.83594 -2.34375,-2.34375 16.83594,-16.83594 -6.44531,0 0,-3.30078 10.85937,0 z"
         style="font-style:normal;font-weight:normal;font-size:medium;line-height:125%;font-family:Sans;letter-spacing:0px;word-spacing:0px;fill:#000000;fill-opacity:1;stroke:none;stroke-width:1px;stroke-linecap:butt;stroke-linejoin:miter;stroke-opacity:1"
         id="path4210"
         inkscape:connector-curvature="0" />
      <path
         d="m -504.13059,-121.19495 3.98438,0 0,-11.9336 -4.35547,0.80079 0,-2.26563 4.49218,-0.76172 2.67579,0 0,14.16016 4.0039,0 0,2.14844 -10.80078,0 0,-2.14844 z"
         style="font-style:normal;font-weight:normal;font-size:medium;line-height:125%;font-family:Sans;letter-spacing:0px;word-spacing:0px;fill:#000000;fill-opacity:1;stroke:none;stroke-width:1px;stroke-linecap:butt;stroke-linejoin:miter;stroke-opacity:1"
         id="path4212"
         inkscape:connector-curvature="0" />
    </g>
    <g
       id="g4372"
       transform="translate(626,222)">
      <path
         d="m -446.86496,-132.46448 0,1.75781 -7.67579,7.67578 -2.34375,-2.34375 4.55079,-4.55078 -23.8086,0 0,-3.32031 23.8086,0 -4.55079,-4.55078 2.34375,-2.34375 7.67579,7.67578 z"
         style="font-style:normal;font-weight:normal;font-size:medium;line-height:125%;font-family:Sans;letter-spacing:0px;word-spacing:0px;fill:#000000;fill-opacity:1;stroke:none;stroke-width:1px;stroke-linecap:butt;stroke-linejoin:miter;stroke-opacity:1"
         id="path4214"
         inkscape:connector-curvature="0" />
      <path
         d="m -441.86496,-121.19495 3.98437,0 0,-11.9336 -4.35547,0.80079 0,-2.26563 4.49219,-0.76172 2.67578,0 0,14.16016 4.00391,0 0,2.14844 -10.80078,0 0,-2.14844 z"
         style="font-style:normal;font-weight:normal;font-size:medium;line-height:125%;font-family:Sans;letter-spacing:0px;word-spacing:0px;fill:#000000;fill-opacity:1;stroke:none;stroke-width:1px;stroke-linecap:butt;stroke-linejoin:miter;stroke-opacity:1"
         id="path4216"
         inkscape:connector-curvature="0" />
    </g>
    <g
       id="g4368"
       transform="translate(524,283)">
      <path
         d="m -388.05637,-121.29261 -1.23047,1.23047 -10.85937,0 0,-3.30078 6.44531,0 -16.83594,-16.83594 2.34375,-2.34375 16.83594,16.83594 0,-6.44531 3.30078,0 0,10.85937 z"
         style="font-style:normal;font-weight:normal;font-size:medium;line-height:125%;font-family:Sans;letter-spacing:0px;word-spacing:0px;fill:#000000;fill-opacity:1;stroke:none;stroke-width:1px;stroke-linecap:butt;stroke-linejoin:miter;stroke-opacity:1"
         id="path4218"
         inkscape:connector-curvature="0" />
      <path
         d="m -379.59934,-121.19495 3.98438,0 0,-11.9336 -4.35547,0.80079 0,-2.26563 4.49218,-0.76172 2.67579,0 0,14.16016 4.0039,0 0,2.14844 -10.80078,0 0,-2.14844 z"
         style="font-style:normal;font-weight:normal;font-size:medium;line-height:125%;font-family:Sans;letter-spacing:0px;word-spacing:0px;fill:#000000;fill-opacity:1;stroke:none;stroke-width:1px;stroke-linecap:butt;stroke-linejoin:miter;stroke-opacity:1"
         id="path4220"
         inkscape:connector-curvature="0" />
    </g>
    <g
       id="g4364"
       transform="translate(404,281)">
      <path
         d="m -347.04075,-120.06214 -1.23046,-1.23047 0,-10.85937 3.30078,0 0,6.44531 16.83593,-16.83594 2.34375,2.34375 -16.83593,16.83594 6.44531,0 0,3.30078 -10.85938,0 z"
         style="font-style:normal;font-weight:normal;font-size:medium;line-height:125%;font-family:Sans;letter-spacing:0px;word-spacing:0px;fill:#000000;fill-opacity:1;stroke:none;stroke-width:1px;stroke-linecap:butt;stroke-linejoin:miter;stroke-opacity:1"
         id="path4222"
         inkscape:connector-curvature="0" />
      <path
         d="m -317.33371,-121.19495 3.98437,0 0,-11.9336 -4.35547,0.80079 0,-2.26563 4.49219,-0.76172 2.67578,0 0,14.16016 4.00391,0 0,2.14844 -10.80078,0 0,-2.14844 z"
         style="font-style:normal;font-weight:normal;font-size:medium;line-height:125%;font-family:Sans;letter-spacing:0px;word-spacing:0px;fill:#000000;fill-opacity:1;stroke:none;stroke-width:1px;stroke-linecap:butt;stroke-linejoin:miter;stroke-opacity:1"
         id="path4224"
         inkscape:connector-curvature="0" />
    </g>
    <g
       id="g4360"
       transform="translate(308,226)">
      <path
         d="m -289.67746,-130.70667 0,-1.75781 7.67578,-7.67578 2.34375,2.34375 -4.55078,4.55078 23.80859,0 0,3.32031 -23.80859,0 4.55078,4.55078 -2.34375,2.34375 -7.67578,-7.67578 z"
         style="font-style:normal;font-weight:normal;font-size:medium;line-height:125%;font-family:Sans;letter-spacing:0px;word-spacing:0px;fill:#000000;fill-opacity:1;stroke:none;stroke-width:1px;stroke-linecap:butt;stroke-linejoin:miter;stroke-opacity:1"
         id="path4226"
         inkscape:connector-curvature="0" />
      <path
         d="m -255.06809,-121.19495 3.98438,0 0,-11.9336 -4.35547,0.80079 0,-2.26563 4.49218,-0.76172 2.67579,0 0,14.16016 4.0039,0 0,2.14844 -10.80078,0 0,-2.14844 z"
         style="font-style:normal;font-weight:normal;font-size:medium;line-height:125%;font-family:Sans;letter-spacing:0px;word-spacing:0px;fill:#000000;fill-opacity:1;stroke:none;stroke-width:1px;stroke-linecap:butt;stroke-linejoin:miter;stroke-opacity:1"
         id="path4228"
         inkscape:connector-curvature="0" />
    </g>
    <g
       id="g4356"
       transform="translate(284,168)">
      <path
         d="m -223.73996,-141.31214 1.23046,-1.23047 10.85938,0 0,3.30078 -6.44531,0 16.83593,16.83594 -2.34375,2.34375 -16.83593,-16.83594 0,6.44532 -3.30078,0 0,-10.85938 z"
         style="font-style:normal;font-weight:normal;font-size:medium;line-height:125%;font-family:Sans;letter-spacing:0px;word-spacing:0px;fill:#000000;fill-opacity:1;stroke:none;stroke-width:1px;stroke-linecap:butt;stroke-linejoin:miter;stroke-opacity:1"
         id="path4230"
         inkscape:connector-curvature="0" />
      <path
         d="m -192.80246,-121.19495 3.98437,0 0,-11.9336 -4.35547,0.80079 0,-2.26563 4.49219,-0.76172 2.67578,0 0,14.16016 4.00391,0 0,2.14844 -10.80078,0 0,-2.14844 z"
         style="font-style:normal;font-weight:normal;font-size:medium;line-height:125%;font-family:Sans;letter-spacing:0px;word-spacing:0px;fill:#000000;fill-opacity:1;stroke:none;stroke-width:1px;stroke-linecap:butt;stroke-linejoin:miter;stroke-opacity:1"
         id="path4232"
         inkscape:connector-curvature="0" />
    </g>
    <g
       id="g4380"
       transform="matrix(0.36030365,0,0,0.36030365,351.9135,175.30083)">
      <path
         d="m -446.86496,-82.464479 0,1.757813 -7.67579,7.675781 -2.34375,-2.34375 4.55079,-4.550781 -23.8086,0 0,-3.320313 23.8086,0 -4.55079,-4.550781 2.34375,-2.34375 7.67579,7.675781 z"
         style="font-style:normal;font-weight:normal;font-size:medium;line-height:125%;font-family:Sans;letter-spacing:0px;word-spacing:0px;fill:#000000;fill-opacity:1;stroke:none;stroke-width:1px;stroke-linecap:butt;stroke-linejoin:miter;stroke-opacity:1"
         id="path4238"
         inkscape:connector-curvature="0" />
      <path
         d="m -439.67746,-71.273073 8.28125,0 0,2.226563 -11.67969,0 0,-2.148438 q 0.66406,-0.605468 1.89453,-1.699218 6.71875,-5.957032 6.71875,-7.792969 0,-1.289063 -1.01563,-2.070313 -1.01562,-0.800781 -2.67578,-0.800781 -1.01562,0 -2.20703,0.351563 -1.1914,0.332031 -2.59765,1.015625 l 0,-2.402344 q 1.5039,-0.546875 2.79296,-0.820313 1.3086,-0.273437 2.42188,-0.273437 2.83203,0 4.53125,1.289062 1.69922,1.289063 1.69922,3.398438 0,2.714844 -6.46485,8.261719 -1.09375,0.9375 -1.69921,1.464843 z"
         style="font-style:normal;font-weight:normal;font-size:medium;line-height:125%;font-family:Sans;letter-spacing:0px;word-spacing:0px;fill:#000000;fill-opacity:1;stroke:none;stroke-width:1px;stroke-linecap:butt;stroke-linejoin:miter;stroke-opacity:1"
         id="path4240"
         inkscape:connector-curvature="0" />
    </g>
    <g
       id="g4384"
       transform="matrix(0.36030365,0,0,0.36030365,275.4135,237.30083)">
      <path
         d="m -388.05637,-71.292604 -1.23047,1.230469 -10.85937,0 0,-3.300781 6.44531,0 -16.83594,-16.835938 2.34375,-2.34375 16.83594,16.835938 0,-6.445313 3.30078,0 0,10.859375 z"
         style="font-style:normal;font-weight:normal;font-size:medium;line-height:125%;font-family:Sans;letter-spacing:0px;word-spacing:0px;fill:#000000;fill-opacity:1;stroke:none;stroke-width:1px;stroke-linecap:butt;stroke-linejoin:miter;stroke-opacity:1"
         id="path4242"
         inkscape:connector-curvature="0" />
      <path
         d="m -377.41184,-71.273073 8.28125,0 0,2.226563 -11.67969,0 0,-2.148438 q 0.66407,-0.605468 1.89453,-1.699218 6.71875,-5.957032 6.71875,-7.792969 0,-1.289063 -1.01562,-2.070313 -1.01563,-0.800781 -2.67578,-0.800781 -1.01563,0 -2.20703,0.351563 -1.19141,0.332031 -2.59766,1.015625 l 0,-2.402344 q 1.50391,-0.546875 2.79297,-0.820313 1.30859,-0.273437 2.42187,-0.273437 2.83204,0 4.53125,1.289062 1.69922,1.289063 1.69922,3.398438 0,2.714844 -6.46484,8.261719 -1.09375,0.9375 -1.69922,1.464843 z"
         style="font-style:normal;font-weight:normal;font-size:medium;line-height:125%;font-family:Sans;letter-spacing:0px;word-spacing:0px;fill:#000000;fill-opacity:1;stroke:none;stroke-width:1px;stroke-linecap:butt;stroke-linejoin:miter;stroke-opacity:1"
         id="path4244"
         inkscape:connector-curvature="0" />
    </g>
    <g
       id="g4388"
       transform="matrix(0.36030365,0,0,0.36030365,200.4135,236.80083)">
      <path
         d="m -347.04075,-70.062135 -1.23046,-1.230469 0,-10.859375 3.30078,0 0,6.445313 16.83593,-16.835938 2.34375,2.34375 -16.83593,16.835938 6.44531,0 0,3.300781 -10.85938,0 z"
         style="font-style:normal;font-weight:normal;font-size:medium;line-height:125%;font-family:Sans;letter-spacing:0px;word-spacing:0px;fill:#000000;fill-opacity:1;stroke:none;stroke-width:1px;stroke-linecap:butt;stroke-linejoin:miter;stroke-opacity:1"
         id="path4246"
         inkscape:connector-curvature="0" />
      <path
         d="m -315.14621,-71.273073 8.28125,0 0,2.226563 -11.67969,0 0,-2.148438 q 0.66406,-0.605468 1.89453,-1.699218 6.71875,-5.957032 6.71875,-7.792969 0,-1.289063 -1.01563,-2.070313 -1.01562,-0.800781 -2.67578,-0.800781 -1.01562,0 -2.20703,0.351563 -1.1914,0.332031 -2.59765,1.015625 l 0,-2.402344 q 1.5039,-0.546875 2.79296,-0.820313 1.3086,-0.273437 2.42188,-0.273437 2.83203,0 4.53125,1.289062 1.69922,1.289063 1.69922,3.398438 0,2.714844 -6.46485,8.261719 -1.09375,0.9375 -1.69921,1.464843 z"
         style="font-style:normal;font-weight:normal;font-size:medium;line-height:125%;font-family:Sans;letter-spacing:0px;word-spacing:0px;fill:#000000;fill-opacity:1;stroke:none;stroke-width:1px;stroke-linecap:butt;stroke-linejoin:miter;stroke-opacity:1"
         id="path4248"
         inkscape:connector-curvature="0" />
    </g>
    <g
       id="g4392"
       transform="matrix(0.36030365,0,0,0.36030365,122.4135,176.80083)">
      <path
         d="m -289.67746,-80.706666 0,-1.757813 7.67578,-7.675781 2.34375,2.34375 -4.55078,4.550781 23.80859,0 0,3.320313 -23.80859,0 4.55078,4.550781 -2.34375,2.34375 -7.67578,-7.675781 z"
         style="font-style:normal;font-weight:normal;font-size:medium;line-height:125%;font-family:Sans;letter-spacing:0px;word-spacing:0px;fill:#000000;fill-opacity:1;stroke:none;stroke-width:1px;stroke-linecap:butt;stroke-linejoin:miter;stroke-opacity:1"
         id="path4250"
         inkscape:connector-curvature="0" />
      <path
         d="m -252.88059,-71.273073 8.28125,0 0,2.226563 -11.67969,0 0,-2.148438 q 0.66407,-0.605468 1.89453,-1.699218 6.71875,-5.957032 6.71875,-7.792969 0,-1.289063 -1.01562,-2.070313 -1.01563,-0.800781 -2.67578,-0.800781 -1.01563,0 -2.20703,0.351563 -1.19141,0.332031 -2.59766,1.015625 l 0,-2.402344 q 1.50391,-0.546875 2.79297,-0.820313 1.30859,-0.273437 2.42187,-0.273437 2.83204,0 4.53125,1.289062 1.69922,1.289063 1.69922,3.398438 0,2.714844 -6.46484,8.261719 -1.09375,0.9375 -1.69922,1.464843 z"
         style="font-style:normal;font-weight:normal;font-size:medium;line-height:125%;font-family:Sans;letter-spacing:0px;word-spacing:0px;fill:#000000;fill-opacity:1;stroke:none;stroke-width:1px;stroke-linecap:butt;stroke-linejoin:miter;stroke-opacity:1"
         id="path4252"
         inkscape:connector-curvature="0" />
    </g>
    <g
       id="g4424"
       transform="matrix(0.36030365,0,0,0.36030365,352.4135,180.80083)">
      <path
         d="m -446.86496,-32.464479 0,1.757813 -7.67579,7.675781 -2.34375,-2.34375 4.55079,-4.550781 -23.8086,0 0,-3.320313 23.8086,0 -4.55079,-4.550781 2.34375,-2.34375 7.67579,7.675781 z"
         style="font-style:normal;font-weight:normal;font-size:medium;line-height:125%;font-family:Sans;letter-spacing:0px;word-spacing:0px;fill:#000000;fill-opacity:1;stroke:none;stroke-width:1px;stroke-linecap:butt;stroke-linejoin:miter;stroke-opacity:1"
         id="path4263"
         inkscape:connector-curvature="0" />
      <path
         d="m -434.67746,-27.874635 q 1.79687,0.351562 2.77343,1.425781 0.9961,1.054688 0.9961,2.65625 0,2.421875 -1.85547,3.730469 -1.85547,1.308594 -5.3125,1.308594 -1.11328,0 -2.34375,-0.214844 -1.21094,-0.195313 -2.57813,-0.585938 l 0,-2.363281 q 1.01563,0.527344 2.16797,0.78125 1.17188,0.253906 2.48047,0.253906 2.12891,0 3.30078,-0.761718 1.17188,-0.78125 1.17188,-2.148438 0,-1.445312 -1.09375,-2.1875 -1.07422,-0.742187 -3.1836,-0.742187 l -1.67968,0 0,-2.109375 1.83593,0 q 1.83594,0 2.77344,-0.605469 0.95703,-0.625 0.95703,-1.796875 0,-1.132813 -0.97656,-1.71875 -0.97656,-0.605469 -2.83203,-0.605469 -0.78125,0 -1.77735,0.175781 -0.99609,0.175782 -2.57812,0.625 l 0,-2.246093 q 1.42578,-0.332032 2.67578,-0.507813 1.25,-0.175781 2.32422,-0.175781 2.8125,0 4.45312,1.152344 1.66016,1.152343 1.66016,3.085937 0,1.347656 -0.87891,2.285156 -0.8789,0.9375 -2.48046,1.289063 z"
         style="font-style:normal;font-weight:normal;font-size:medium;line-height:125%;font-family:Sans;letter-spacing:0px;word-spacing:0px;fill:#000000;fill-opacity:1;stroke:none;stroke-width:1px;stroke-linecap:butt;stroke-linejoin:miter;stroke-opacity:1"
         id="path4265"
         inkscape:connector-curvature="0" />
    </g>
    <g
       id="g4412"
       transform="matrix(0.36030365,0,0,0.36030365,276.4135,243.30083)">
      <path
         d="m -388.05637,-21.292604 -1.23047,1.230469 -10.85937,0 0,-3.300781 6.44531,0 -16.83594,-16.835938 2.34375,-2.34375 16.83594,16.835938 0,-6.445313 3.30078,0 0,10.859375 z"
         style="font-style:normal;font-weight:normal;font-size:medium;line-height:125%;font-family:Sans;letter-spacing:0px;word-spacing:0px;fill:#000000;fill-opacity:1;stroke:none;stroke-width:1px;stroke-linecap:butt;stroke-linejoin:miter;stroke-opacity:1"
         id="path4268"
         inkscape:connector-curvature="0" />
      <path
         d="m -372.41184,-27.874635 q 1.79688,0.351562 2.77344,1.425781 0.99609,1.054688 0.99609,2.65625 0,2.421875 -1.85547,3.730469 -1.85547,1.308594 -5.3125,1.308594 -1.11328,0 -2.34375,-0.214844 -1.21093,-0.195313 -2.57812,-0.585938 l 0,-2.363281 q 1.01562,0.527344 2.16797,0.78125 1.17187,0.253906 2.48047,0.253906 2.1289,0 3.30078,-0.761718 1.17187,-0.78125 1.17187,-2.148438 0,-1.445312 -1.09375,-2.1875 -1.07422,-0.742187 -3.18359,-0.742187 l -1.67969,0 0,-2.109375 1.83594,0 q 1.83594,0 2.77344,-0.605469 0.95703,-0.625 0.95703,-1.796875 0,-1.132813 -0.97657,-1.71875 -0.97656,-0.605469 -2.83203,-0.605469 -0.78125,0 -1.77734,0.175781 -0.99609,0.175782 -2.57813,0.625 l 0,-2.246093 q 1.42579,-0.332032 2.67579,-0.507813 1.25,-0.175781 2.32421,-0.175781 2.8125,0 4.45313,1.152344 1.66016,1.152343 1.66016,3.085937 0,1.347656 -0.87891,2.285156 -0.87891,0.9375 -2.48047,1.289063 z"
         style="font-style:normal;font-weight:normal;font-size:medium;line-height:125%;font-family:Sans;letter-spacing:0px;word-spacing:0px;fill:#000000;fill-opacity:1;stroke:none;stroke-width:1px;stroke-linecap:butt;stroke-linejoin:miter;stroke-opacity:1"
         id="path4270"
         inkscape:connector-curvature="0" />
    </g>
    <g
       id="g4408"
       transform="matrix(0.36030365,0,0,0.36030365,199.9135,243.80083)">
      <path
         d="m -347.04075,-20.062135 -1.23046,-1.230469 0,-10.859375 3.30078,0 0,6.445313 16.83593,-16.835938 2.34375,2.34375 -16.83593,16.835938 6.44531,0 0,3.300781 -10.85938,0 z"
         style="font-style:normal;font-weight:normal;font-size:medium;line-height:125%;font-family:Sans;letter-spacing:0px;word-spacing:0px;fill:#000000;fill-opacity:1;stroke:none;stroke-width:1px;stroke-linecap:butt;stroke-linejoin:miter;stroke-opacity:1"
         id="path4272"
         inkscape:connector-curvature="0" />
      <path
         d="m -310.14621,-27.874635 q 1.79687,0.351562 2.77343,1.425781 0.9961,1.054688 0.9961,2.65625 0,2.421875 -1.85547,3.730469 -1.85547,1.308594 -5.3125,1.308594 -1.11328,0 -2.34375,-0.214844 -1.21094,-0.195313 -2.57813,-0.585938 l 0,-2.363281 q 1.01563,0.527344 2.16797,0.78125 1.17188,0.253906 2.48047,0.253906 2.12891,0 3.30078,-0.761718 1.17188,-0.78125 1.17188,-2.148438 0,-1.445312 -1.09375,-2.1875 -1.07422,-0.742187 -3.1836,-0.742187 l -1.67968,0 0,-2.109375 1.83593,0 q 1.83594,0 2.77344,-0.605469 0.95703,-0.625 0.95703,-1.796875 0,-1.132813 -0.97656,-1.71875 -0.97656,-0.605469 -2.83203,-0.605469 -0.78125,0 -1.77735,0.175781 -0.99609,0.175782 -2.57812,0.625 l 0,-2.246093 q 1.42578,-0.332032 2.67578,-0.507813 1.25,-0.175781 2.32422,-0.175781 2.8125,0 4.45312,1.152344 1.66016,1.152343 1.66016,3.085937 0,1.347656 -0.87891,2.285156 -0.8789,0.9375 -2.48046,1.289063 z"
         style="font-style:normal;font-weight:normal;font-size:medium;line-height:125%;font-family:Sans;letter-spacing:0px;word-spacing:0px;fill:#000000;fill-opacity:1;stroke:none;stroke-width:1px;stroke-linecap:butt;stroke-linejoin:miter;stroke-opacity:1"
         id="path4274"
         inkscape:connector-curvature="0" />
    </g>
    <g
       id="g4396"
       transform="matrix(0.36030365,0,0,0.36030365,121.4135,181.30083)">
      <path
         d="m -289.67746,-30.706666 0,-1.757813 7.67578,-7.675781 2.34375,2.34375 -4.55078,4.550781 23.80859,0 0,3.320313 -23.80859,0 4.55078,4.550781 -2.34375,2.34375 -7.67578,-7.675781 z"
         style="font-style:normal;font-weight:normal;font-size:medium;line-height:125%;font-family:Sans;letter-spacing:0px;word-spacing:0px;fill:#000000;fill-opacity:1;stroke:none;stroke-width:1px;stroke-linecap:butt;stroke-linejoin:miter;stroke-opacity:1"
         id="path4276"
         inkscape:connector-curvature="0" />
      <path
         d="m -247.88059,-27.874635 q 1.79688,0.351562 2.77344,1.425781 0.99609,1.054688 0.99609,2.65625 0,2.421875 -1.85547,3.730469 -1.85547,1.308594 -5.3125,1.308594 -1.11328,0 -2.34375,-0.214844 -1.21093,-0.195313 -2.57812,-0.585938 l 0,-2.363281 q 1.01562,0.527344 2.16797,0.78125 1.17187,0.253906 2.48047,0.253906 2.1289,0 3.30078,-0.761718 1.17187,-0.78125 1.17187,-2.148438 0,-1.445312 -1.09375,-2.1875 -1.07422,-0.742187 -3.18359,-0.742187 l -1.67969,0 0,-2.109375 1.83594,0 q 1.83594,0 2.77344,-0.605469 0.95703,-0.625 0.95703,-1.796875 0,-1.132813 -0.97657,-1.71875 -0.97656,-0.605469 -2.83203,-0.605469 -0.78125,0 -1.77734,0.175781 -0.99609,0.175782 -2.57813,0.625 l 0,-2.246093 q 1.42579,-0.332032 2.67579,-0.507813 1.25,-0.175781 2.32421,-0.175781 2.8125,0 4.45313,1.152344 1.66016,1.152343 1.66016,3.085937 0,1.347656 -0.87891,2.285156 -0.87891,0.9375 -2.48047,1.289063 z"
         style="font-style:normal;font-weight:normal;font-size:medium;line-height:125%;font-family:Sans;letter-spacing:0px;word-spacing:0px;fill:#000000;fill-opacity:1;stroke:none;stroke-width:1px;stroke-linecap:butt;stroke-linejoin:miter;stroke-opacity:1"
         id="path4278"
         inkscape:connector-curvature="0" />
    </g>
    <g
       id="g4420"
       transform="matrix(0.36030365,0,0,0.36030365,352.9135,184.30083)">
      <path
         d="m -446.86496,17.535521 0,1.757813 -7.67579,7.675781 -2.34375,-2.34375 4.55079,-4.550781 -23.8086,0 0,-3.320313 23.8086,0 -4.55079,-4.550781 2.34375,-2.3437502 7.67579,7.6757812 z"
         style="font-style:normal;font-weight:normal;font-size:medium;line-height:125%;font-family:Sans;letter-spacing:0px;word-spacing:0px;fill:#000000;fill-opacity:1;stroke:none;stroke-width:1px;stroke-linecap:butt;stroke-linejoin:miter;stroke-opacity:1"
         id="path4288"
         inkscape:connector-curvature="0" />
      <path
         d="m -435.59543,17.008177 -6.03516,8.183594 6.03516,0 0,-8.183594 z m -0.42969,-2.363281 3.24219,0 0,10.546875 2.63672,0 0,2.128906 -2.63672,0 0,3.632813 -2.8125,0 0,-3.632813 -8.08594,0 0,-2.363281 7.65625,-10.3125 z"
         style="font-style:normal;font-weight:normal;font-size:medium;line-height:125%;font-family:Sans;letter-spacing:0px;word-spacing:0px;fill:#000000;fill-opacity:1;stroke:none;stroke-width:1px;stroke-linecap:butt;stroke-linejoin:miter;stroke-opacity:1"
         id="path4290"
         inkscape:connector-curvature="0" />
    </g>
    <g
       id="g4416"
       transform="matrix(0.36030365,0,0,0.36030365,276.4135,248.30083)">
      <path
         d="m -388.05637,28.707396 -1.23047,1.230469 -10.85937,0 0,-3.300781 6.44531,0 -16.83594,-16.8359379 2.34375,-2.34375 16.83594,16.8359379 0,-6.445313 3.30078,0 0,10.859375 z"
         style="font-style:normal;font-weight:normal;font-size:medium;line-height:125%;font-family:Sans;letter-spacing:0px;word-spacing:0px;fill:#000000;fill-opacity:1;stroke:none;stroke-width:1px;stroke-linecap:butt;stroke-linejoin:miter;stroke-opacity:1"
         id="path4292"
         inkscape:connector-curvature="0" />
      <path
         d="m -373.32981,17.008177 -6.03515,8.183594 6.03515,0 0,-8.183594 z m -0.42969,-2.363281 3.24219,0 0,10.546875 2.63672,0 0,2.128906 -2.63672,0 0,3.632813 -2.8125,0 0,-3.632813 -8.08594,0 0,-2.363281 7.65625,-10.3125 z"
         style="font-style:normal;font-weight:normal;font-size:medium;line-height:125%;font-family:Sans;letter-spacing:0px;word-spacing:0px;fill:#000000;fill-opacity:1;stroke:none;stroke-width:1px;stroke-linecap:butt;stroke-linejoin:miter;stroke-opacity:1"
         id="path4294"
         inkscape:connector-curvature="0" />
    </g>
    <g
       id="g4404"
       transform="matrix(0.36030365,0,0,0.36030365,198.9135,247.80083)">
      <path
         d="m -347.04075,29.937865 -1.23046,-1.230469 0,-10.859375 3.30078,0 0,6.445313 16.83593,-16.8359379 2.34375,2.34375 -16.83593,16.8359379 6.44531,0 0,3.300781 -10.85938,0 z"
         style="font-style:normal;font-weight:normal;font-size:medium;line-height:125%;font-family:Sans;letter-spacing:0px;word-spacing:0px;fill:#000000;fill-opacity:1;stroke:none;stroke-width:1px;stroke-linecap:butt;stroke-linejoin:miter;stroke-opacity:1"
         id="path4296"
         inkscape:connector-curvature="0" />
      <path
         d="m -311.06418,17.008177 -6.03516,8.183594 6.03516,0 0,-8.183594 z m -0.42969,-2.363281 3.24219,0 0,10.546875 2.63672,0 0,2.128906 -2.63672,0 0,3.632813 -2.8125,0 0,-3.632813 -8.08594,0 0,-2.363281 7.65625,-10.3125 z"
         style="font-style:normal;font-weight:normal;font-size:medium;line-height:125%;font-family:Sans;letter-spacing:0px;word-spacing:0px;fill:#000000;fill-opacity:1;stroke:none;stroke-width:1px;stroke-linecap:butt;stroke-linejoin:miter;stroke-opacity:1"
         id="path4298"
         inkscape:connector-curvature="0" />
    </g>
    <g
       id="g4400"
       transform="matrix(0.36030365,0,0,0.36030365,118.9135,184.30083)">
      <path
         d="m -289.67746,19.293334 0,-1.757813 7.67578,-7.6757812 2.34375,2.3437502 -4.55078,4.550781 23.80859,0 0,3.320313 -23.80859,0 4.55078,4.550781 -2.34375,2.34375 -7.67578,-7.675781 z"
         style="font-style:normal;font-weight:normal;font-size:medium;line-height:125%;font-family:Sans;letter-spacing:0px;word-spacing:0px;fill:#000000;fill-opacity:1;stroke:none;stroke-width:1px;stroke-linecap:butt;stroke-linejoin:miter;stroke-opacity:1"
         id="path4300"
         inkscape:connector-curvature="0" />
      <path
         d="m -248.79856,17.008177 -6.03515,8.183594 6.03515,0 0,-8.183594 z m -0.42969,-2.363281 3.24219,0 0,10.546875 2.63672,0 0,2.128906 -2.63672,0 0,3.632813 -2.8125,0 0,-3.632813 -8.08594,0 0,-2.363281 7.65625,-10.3125 z"
         style="font-style:normal;font-weight:normal;font-size:medium;line-height:125%;font-family:Sans;letter-spacing:0px;word-spacing:0px;fill:#000000;fill-opacity:1;stroke:none;stroke-width:1px;stroke-linecap:butt;stroke-linejoin:miter;stroke-opacity:1"
         id="path4302"
         inkscape:connector-curvature="0" />
    </g>
  </g>
</svg>
