<?xml version="1.0" encoding="UTF-8" standalone="no"?>
<!-- Created with Inkscape (http://www.inkscape.org/) -->

<svg
   xmlns:dc="http://purl.org/dc/elements/1.1/"
   xmlns:cc="http://creativecommons.org/ns#"
   xmlns:rdf="http://www.w3.org/1999/02/22-rdf-syntax-ns#"
   xmlns:svg="http://www.w3.org/2000/svg"
   xmlns="http://www.w3.org/2000/svg"
   xmlns:sodipodi="http://sodipodi.sourceforge.net/DTD/sodipodi-0.dtd"
   xmlns:inkscape="http://www.inkscape.org/namespaces/inkscape"
   width="170.98929mm"
   height="76.325157mm"
   viewBox="0 0 605.86756 270.44347"
   id="svg2"
   version="1.1"
   inkscape:version="0.91 r13725"
   sodipodi:docname="rotation-3-1.svg">
  <defs
     id="defs4" />
  <sodipodi:namedview
     id="base"
     pagecolor="#ffffff"
     bordercolor="#666666"
     borderopacity="1.0"
     inkscape:pageopacity="0.0"
     inkscape:pageshadow="2"
     inkscape:zoom="1.4142136"
     inkscape:cx="220.59938"
     inkscape:cy="153.2439"
     inkscape:document-units="px"
     inkscape:current-layer="layer1"
     showgrid="false"
     fit-margin-top="0"
     fit-margin-left="0"
     fit-margin-right="0"
     fit-margin-bottom="0"
     inkscape:window-width="1600"
     inkscape:window-height="1138"
     inkscape:window-x="1600"
     inkscape:window-y="38"
     inkscape:window-maximized="0" />
  <metadata
     id="metadata7">
    <rdf:RDF>
      <cc:Work
         rdf:about="">
        <dc:format>image/svg+xml</dc:format>
        <dc:type
           rdf:resource="http://purl.org/dc/dcmitype/StillImage" />
        <dc:title />
      </cc:Work>
    </rdf:RDF>
  </metadata>
  <g
     inkscape:label="Layer 1"
     inkscape:groupmode="layer"
     id="layer1"
     transform="translate(-4.3069067,-4.6401641)">
    <path
       sodipodi:nodetypes="ccccccc"
       inkscape:connector-curvature="0"
       id="path4321"
       d="m 108.06561,235.24011 49.60555,14.70448 11.31371,-45.99214 0.63001,18.00288 -11.95578,51.30356 -50.40816,-15.29788 z"
       style="fill:#cd8959;fill-opacity:1;fill-rule:evenodd;stroke:none;stroke-width:5;stroke-linecap:butt;stroke-linejoin:miter;stroke-miterlimit:4;stroke-dasharray:none;stroke-opacity:1" />
    <path
       style="fill:#cd8959;fill-opacity:1;fill-rule:evenodd;stroke:none;stroke-width:5;stroke-linecap:butt;stroke-linejoin:miter;stroke-miterlimit:4;stroke-dasharray:none;stroke-opacity:1"
       d="m 108.06561,212.19636 49.60555,14.70448 11.31371,-45.99214 0.63001,18.00288 -11.95578,51.30356 -50.40816,-15.29789 z"
       id="path4323"
       inkscape:connector-curvature="0"
       sodipodi:nodetypes="ccccccc" />
    <path
       sodipodi:nodetypes="ccccccc"
       inkscape:connector-curvature="0"
       id="path4325"
       d="m 108.06561,189.15261 49.60555,14.70448 11.31371,-45.99214 0.63001,18.00288 -11.95578,51.30356 -50.40816,-15.29789 z"
       style="fill:#cd8959;fill-opacity:1;fill-rule:evenodd;stroke:none;stroke-width:5;stroke-linecap:butt;stroke-linejoin:miter;stroke-miterlimit:4;stroke-dasharray:none;stroke-opacity:1" />
    <path
       style="fill:#cd8959;fill-opacity:1;fill-rule:evenodd;stroke:none;stroke-width:5;stroke-linecap:butt;stroke-linejoin:miter;stroke-miterlimit:4;stroke-dasharray:none;stroke-opacity:1"
       d="m 108.06561,166.10886 49.60555,14.70448 11.31371,-45.99214 0.63001,18.00288 -11.95578,51.30356 -50.40816,-15.29789 z"
       id="path4327"
       inkscape:connector-curvature="0"
       sodipodi:nodetypes="ccccccc" />
    <path
       style="fill:#eeeeee;fill-opacity:1;fill-rule:evenodd;stroke:none;stroke-width:5;stroke-linecap:butt;stroke-linejoin:miter;stroke-miterlimit:4;stroke-dasharray:none;stroke-opacity:1"
       d="M 106.43617,235.06435 56.626978,250.52565 45.109601,205.6977 44.88701,221.95533 56.842771,273.25889 107.25084,257.96101 Z"
       id="path4313"
       inkscape:connector-curvature="0"
       sodipodi:nodetypes="ccccccc" />
    <path
       sodipodi:nodetypes="ccccccc"
       inkscape:connector-curvature="0"
       id="path4315"
       d="M 106.43617,212.0206 56.626978,227.4819 45.109601,182.65394 44.88701,198.91158 56.842771,250.21514 107.25084,234.91725 Z"
       style="fill:#eeeeee;fill-opacity:1;fill-rule:evenodd;stroke:none;stroke-width:5;stroke-linecap:butt;stroke-linejoin:miter;stroke-miterlimit:4;stroke-dasharray:none;stroke-opacity:1" />
    <path
       style="fill:#eeeeee;fill-opacity:1;fill-rule:evenodd;stroke:none;stroke-width:5;stroke-linecap:butt;stroke-linejoin:miter;stroke-miterlimit:4;stroke-dasharray:none;stroke-opacity:1"
       d="M 106.43617,188.97685 56.626978,204.43815 45.109601,159.61019 44.88701,175.86783 56.842771,227.17139 107.25084,211.8735 Z"
       id="path4317"
       inkscape:connector-curvature="0"
       sodipodi:nodetypes="ccccccc" />
    <path
       sodipodi:nodetypes="ccccccc"
       inkscape:connector-curvature="0"
       id="path4319"
       d="M 106.43617,165.9331 56.626978,181.3944 45.109601,136.56644 44.88701,152.82408 56.842771,204.12764 107.25084,188.82975 Z"
       style="fill:#eeeeee;fill-opacity:1;fill-rule:evenodd;stroke:none;stroke-width:5;stroke-linecap:butt;stroke-linejoin:miter;stroke-miterlimit:4;stroke-dasharray:none;stroke-opacity:1" />
    <path
       style="fill:#32a679;fill-opacity:1;fill-rule:evenodd;stroke:none;stroke-width:5;stroke-linecap:butt;stroke-linejoin:miter;stroke-miterlimit:4;stroke-dasharray:none;stroke-opacity:1"
       d="m 169.57695,198.05045 0.0379,23.90499 38.45243,-36.00586 1.06143,-23.09018 z"
       id="path4299"
       inkscape:connector-curvature="0"
       sodipodi:nodetypes="ccccc" />
    <path
       sodipodi:nodetypes="ccccc"
       inkscape:connector-curvature="0"
       id="path4307"
       d="m 169.57695,175.0067 0.0379,23.90499 38.45243,-36.00587 1.06143,-23.09018 z"
       style="fill:#32a679;fill-opacity:1;fill-rule:evenodd;stroke:none;stroke-width:5;stroke-linecap:butt;stroke-linejoin:miter;stroke-miterlimit:4;stroke-dasharray:none;stroke-opacity:1" />
    <path
       style="fill:#32a679;fill-opacity:1;fill-rule:evenodd;stroke:none;stroke-width:5;stroke-linecap:butt;stroke-linejoin:miter;stroke-miterlimit:4;stroke-dasharray:none;stroke-opacity:1"
       d="m 169.57695,151.96295 0.0379,23.90498 38.45243,-36.00586 1.06143,-23.09018 z"
       id="path4309"
       inkscape:connector-curvature="0"
       sodipodi:nodetypes="ccccc" />
    <path
       sodipodi:nodetypes="ccccc"
       inkscape:connector-curvature="0"
       id="path4311"
       d="m 169.57695,128.9192 0.0379,23.90498 38.45243,-36.00586 1.06143,-23.090178 z"
       style="fill:#32a679;fill-opacity:1;fill-rule:evenodd;stroke:none;stroke-width:5;stroke-linecap:butt;stroke-linejoin:miter;stroke-miterlimit:4;stroke-dasharray:none;stroke-opacity:1" />
    <path
       style="fill:#2495be;fill-opacity:1;fill-rule:evenodd;stroke:none;stroke-width:5;stroke-linecap:butt;stroke-linejoin:miter;stroke-miterlimit:4;stroke-dasharray:none;stroke-opacity:1"
       d="M 44.517475,174.71926 44.886907,198.91169 6.434478,162.90582 7.002495,139.12084 Z"
       id="path4301"
       inkscape:connector-curvature="0"
       sodipodi:nodetypes="ccccc" />
    <path
       sodipodi:nodetypes="ccccc"
       inkscape:connector-curvature="0"
       id="path4303"
       d="M 44.517475,151.67551 44.886907,175.86793 6.434478,139.86207 7.002495,116.07709 Z"
       style="fill:#2495be;fill-opacity:1;fill-rule:evenodd;stroke:none;stroke-width:5;stroke-linecap:butt;stroke-linejoin:miter;stroke-miterlimit:4;stroke-dasharray:none;stroke-opacity:1" />
    <path
       style="fill:#2495be;fill-opacity:1;fill-rule:evenodd;stroke:none;stroke-width:5;stroke-linecap:butt;stroke-linejoin:miter;stroke-miterlimit:4;stroke-dasharray:none;stroke-opacity:1"
       d="M 44.517475,128.63176 44.886907,152.82418 6.434478,116.81832 7.002495,93.033338 Z"
       id="path4305"
       inkscape:connector-curvature="0"
       sodipodi:nodetypes="ccccc" />
    <path
       sodipodi:nodetypes="ccccc"
       inkscape:connector-curvature="0"
       id="path4293"
       d="M 44.517475,197.76301 44.886907,221.95544 6.434478,185.94958 7.002495,162.16459 Z"
       style="fill:#2495be;fill-opacity:1;fill-rule:evenodd;stroke:none;stroke-width:5;stroke-linecap:butt;stroke-linejoin:miter;stroke-miterlimit:4;stroke-dasharray:none;stroke-opacity:1" />
    <path
       sodipodi:nodetypes="ccccccc"
       inkscape:connector-curvature="0"
       id="path4287"
       d="m 5.2910298,184.89873 39.5954562,37.05621 11.956199,51.30385 50.408205,-15.29799 50.40821,15.29799 11.95619,-51.30385 39.55328,-37.03949"
       style="fill:none;fill-opacity:1;fill-rule:evenodd;stroke:#000000;stroke-width:2.88046885;stroke-linecap:butt;stroke-linejoin:miter;stroke-miterlimit:4;stroke-dasharray:none;stroke-opacity:1" />
    <path
       style="fill:none;fill-opacity:1;fill-rule:evenodd;stroke:#000000;stroke-width:2.88046885;stroke-linecap:butt;stroke-linejoin:miter;stroke-miterlimit:4;stroke-dasharray:none;stroke-opacity:1"
       d="m 6.434478,162.90532 38.452008,36.00586 11.956199,51.30386 50.408205,-15.29799 50.40821,15.29799 11.95619,-51.30386 38.45201,-36.00586"
       id="path4269"
       inkscape:connector-curvature="0"
       sodipodi:nodetypes="ccccccc" />
    <path
       sodipodi:nodetypes="ccccccc"
       inkscape:connector-curvature="0"
       id="path4267"
       d="m 6.434478,139.86157 38.452008,36.00586 11.956199,51.30386 50.408205,-15.298 50.40821,15.298 11.95619,-51.30386 38.45201,-36.00586"
       style="fill:none;fill-opacity:1;fill-rule:evenodd;stroke:#000000;stroke-width:2.88046885;stroke-linecap:butt;stroke-linejoin:miter;stroke-miterlimit:4;stroke-dasharray:none;stroke-opacity:1" />
    <path
       style="fill:none;fill-opacity:1;fill-rule:evenodd;stroke:#000000;stroke-width:2.88046885;stroke-linecap:butt;stroke-linejoin:miter;stroke-miterlimit:4;stroke-dasharray:none;stroke-opacity:1"
       d="m 6.434478,116.81782 38.452008,36.00586 11.956199,51.30386 50.408205,-15.298 50.40821,15.298 11.95619,-51.30386 38.45201,-36.00586"
       id="path4258"
       inkscape:connector-curvature="0"
       sodipodi:nodetypes="ccccccc" />
    <path
       style="fill:#cd656c;fill-opacity:1;fill-rule:evenodd;stroke:#000000;stroke-width:2.88046885;stroke-linecap:butt;stroke-linejoin:miter;stroke-miterlimit:4;stroke-dasharray:none;stroke-opacity:1"
       d="m 107.25089,93.774569 0,-72.011724 L 56.842685,6.4649973 44.88701,57.768707 Z"
       id="path4146"
       inkscape:connector-curvature="0"
       sodipodi:nodetypes="ccccc" />
    <path
       sodipodi:nodetypes="ccccc"
       inkscape:connector-curvature="0"
       id="path4148"
       d="m 107.25089,93.774569 0,-72.011724 50.40821,-15.2978477 11.95567,51.3037097 z"
       style="fill:#ccad47;fill-opacity:1;fill-rule:evenodd;stroke:#000000;stroke-width:2.88046885;stroke-linecap:butt;stroke-linejoin:miter;stroke-miterlimit:4;stroke-dasharray:none;stroke-opacity:1" />
    <path
       sodipodi:nodetypes="ccccc"
       inkscape:connector-curvature="0"
       id="path4150"
       d="M 107.25089,93.774569 169.61488,129.78043 208.0673,93.774569 169.61482,57.768794 Z"
       style="fill:#32a679;fill-opacity:1;fill-rule:evenodd;stroke:#000000;stroke-width:2.88046885;stroke-linecap:butt;stroke-linejoin:miter;stroke-miterlimit:4;stroke-dasharray:none;stroke-opacity:1" />
    <path
       style="fill:#cd8959;fill-opacity:1;fill-rule:evenodd;stroke:#000000;stroke-width:2.88046885;stroke-linecap:butt;stroke-linejoin:miter;stroke-miterlimit:4;stroke-dasharray:none;stroke-opacity:1"
       d="M 107.25089,93.774569 169.61488,129.78033 157.6591,181.08389 107.25094,165.786 Z"
       id="path4152"
       inkscape:connector-curvature="0"
       sodipodi:nodetypes="ccccc" />
    <path
       style="fill:#2495be;fill-opacity:1;fill-rule:evenodd;stroke:#000000;stroke-width:2.88046885;stroke-linecap:butt;stroke-linejoin:miter;stroke-miterlimit:4;stroke-dasharray:none;stroke-opacity:1"
       d="M 107.25089,93.774569 44.886907,129.78043 6.434478,93.774569 44.886958,57.768794 Z"
       id="path4154"
       inkscape:connector-curvature="0"
       sodipodi:nodetypes="ccccc" />
    <path
       sodipodi:nodetypes="ccccc"
       inkscape:connector-curvature="0"
       id="path4156"
       d="M 107.25089,93.774569 44.88701,129.78033 56.842771,181.08389 107.25084,165.786 Z"
       style="fill:#eeeeee;fill-opacity:1;fill-rule:evenodd;stroke:#000000;stroke-width:2.88046885;stroke-linecap:butt;stroke-linejoin:miter;stroke-miterlimit:4;stroke-dasharray:none;stroke-opacity:1" />
    <path
       style="opacity:1;fill:#2495be;fill-opacity:1;stroke:#000000;stroke-width:2.88046885;stroke-linecap:round;stroke-linejoin:round;stroke-miterlimit:4;stroke-dasharray:none;stroke-dashoffset:0;stroke-opacity:1"
       id="path4140"
       sodipodi:type="arc"
       sodipodi:cx="107.25092"
       sodipodi:cy="93.774574"
       sodipodi:rx="40.021271"
       sodipodi:ry="40.021271"
       sodipodi:start="1.5707963"
       sodipodi:end="4.712389"
       sodipodi:open="true"
       d="m 107.25092,133.79585 a 40.021271,40.021271 0 0 1 -34.659434,-20.01064 40.021271,40.021271 0 0 1 0,-40.021271 40.021271,40.021271 0 0 1 34.659434,-20.010635" />
    <path
       d="m 107.25092,53.753304 a 40.021271,40.021271 0 0 1 40.02127,40.02127 40.021271,40.021271 0 0 1 -40.02127,40.021276"
       sodipodi:open="true"
       sodipodi:end="1.5707963"
       sodipodi:start="4.712389"
       sodipodi:ry="40.021271"
       sodipodi:rx="40.021271"
       sodipodi:cy="93.774574"
       sodipodi:cx="107.25092"
       sodipodi:type="arc"
       id="path4158"
       style="opacity:1;fill:#2495be;fill-opacity:1;stroke:#000000;stroke-width:2.88046885;stroke-linecap:round;stroke-linejoin:round;stroke-miterlimit:4;stroke-dasharray:none;stroke-dashoffset:0;stroke-opacity:1" />
    <path
       style="fill:none;fill-rule:evenodd;stroke:#000000;stroke-width:2.88046885;stroke-linecap:butt;stroke-linejoin:miter;stroke-miterlimit:4;stroke-dasharray:none;stroke-opacity:1"
       d="m 107.25093,132.98729 0,-78.652759"
       id="path4160"
       inkscape:connector-curvature="0"
       sodipodi:nodetypes="cc" />
    <path
       style="fill:none;fill-rule:evenodd;stroke:#000000;stroke-width:2.88046885;stroke-linecap:butt;stroke-linejoin:miter;stroke-miterlimit:4;stroke-dasharray:none;stroke-opacity:1"
       d="m 5.7674651,185.94962 0,-92.173761"
       id="path4279"
       inkscape:connector-curvature="0"
       sodipodi:nodetypes="cc" />
    <path
       sodipodi:nodetypes="cc"
       inkscape:connector-curvature="0"
       id="path4281"
       d="m 45.001497,222.57781 0,-92.17375"
       style="fill:none;fill-rule:evenodd;stroke:#000000;stroke-width:2.88046885;stroke-linecap:butt;stroke-linejoin:miter;stroke-miterlimit:4;stroke-dasharray:none;stroke-opacity:1" />
    <path
       sodipodi:nodetypes="cc"
       inkscape:connector-curvature="0"
       id="path4283"
       d="m 208.72633,185.94962 0,-92.173761"
       style="fill:none;fill-rule:evenodd;stroke:#000000;stroke-width:2.88046885;stroke-linecap:butt;stroke-linejoin:miter;stroke-miterlimit:4;stroke-dasharray:none;stroke-opacity:1" />
    <path
       style="fill:none;fill-rule:evenodd;stroke:#000000;stroke-width:2.88046885;stroke-linecap:butt;stroke-linejoin:miter;stroke-miterlimit:4;stroke-dasharray:none;stroke-opacity:1"
       d="m 169.48868,222.57781 0,-92.17375"
       id="path4285"
       inkscape:connector-curvature="0"
       sodipodi:nodetypes="cc" />
    <path
       sodipodi:nodetypes="cc"
       inkscape:connector-curvature="0"
       id="path4291"
       d="m 107.25093,258.14367 0,-91.61487"
       style="fill:none;fill-rule:evenodd;stroke:#000000;stroke-width:2.88046885;stroke-linecap:butt;stroke-linejoin:miter;stroke-miterlimit:4;stroke-dasharray:none;stroke-opacity:1" />
    <path
       style="fill:#cd8959;fill-opacity:1;fill-rule:evenodd;stroke:none;stroke-width:5;stroke-linecap:butt;stroke-linejoin:miter;stroke-miterlimit:4;stroke-dasharray:none;stroke-opacity:1"
       d="m 508.06561,235.24011 49.60555,14.70448 11.31371,-45.99214 0.63001,18.00288 -11.95578,51.30356 -50.40816,-15.29788 z"
       id="path4242"
       inkscape:connector-curvature="0"
       sodipodi:nodetypes="ccccccc" />
    <path
       sodipodi:nodetypes="ccccccc"
       inkscape:connector-curvature="0"
       id="path4244"
       d="m 508.06561,212.19636 49.60555,14.70448 11.31371,-45.99214 0.63001,18.00288 -11.95578,51.30356 -50.40816,-15.29789 z"
       style="fill:#32a679;fill-opacity:1;fill-rule:evenodd;stroke:none;stroke-width:5;stroke-linecap:butt;stroke-linejoin:miter;stroke-miterlimit:4;stroke-dasharray:none;stroke-opacity:1" />
    <path
       style="fill:#cd8959;fill-opacity:1;fill-rule:evenodd;stroke:none;stroke-width:5;stroke-linecap:butt;stroke-linejoin:miter;stroke-miterlimit:4;stroke-dasharray:none;stroke-opacity:1"
       d="m 508.06561,189.15261 49.60555,14.70448 11.31371,-45.99214 0.63001,18.00288 -11.95578,51.30356 -50.40816,-15.29789 z"
       id="path4246"
       inkscape:connector-curvature="0"
       sodipodi:nodetypes="ccccccc" />
    <path
       sodipodi:nodetypes="ccccccc"
       inkscape:connector-curvature="0"
       id="path4248"
       d="m 508.06561,166.10886 49.60555,14.70448 11.31371,-45.99214 0.63001,18.00288 -11.95578,51.30356 -50.40816,-15.29789 z"
       style="fill:#cd8959;fill-opacity:1;fill-rule:evenodd;stroke:none;stroke-width:5;stroke-linecap:butt;stroke-linejoin:miter;stroke-miterlimit:4;stroke-dasharray:none;stroke-opacity:1" />
    <path
       sodipodi:nodetypes="ccccccc"
       inkscape:connector-curvature="0"
       id="path4250"
       d="m 506.43617,235.06435 -49.80919,15.4613 -11.51738,-44.82795 -0.22259,16.25763 11.95576,51.30356 50.40807,-15.29788 z"
       style="fill:#eeeeee;fill-opacity:1;fill-rule:evenodd;stroke:none;stroke-width:5;stroke-linecap:butt;stroke-linejoin:miter;stroke-miterlimit:4;stroke-dasharray:none;stroke-opacity:1" />
    <path
       style="fill:#cd8959;fill-opacity:1;fill-rule:evenodd;stroke:none;stroke-width:5;stroke-linecap:butt;stroke-linejoin:miter;stroke-miterlimit:4;stroke-dasharray:none;stroke-opacity:1"
       d="m 506.43617,212.0206 -49.80919,15.4613 -11.51738,-44.82796 -0.22259,16.25764 11.95576,51.30356 50.40807,-15.29789 z"
       id="path4252"
       inkscape:connector-curvature="0"
       sodipodi:nodetypes="ccccccc" />
    <path
       sodipodi:nodetypes="ccccccc"
       inkscape:connector-curvature="0"
       id="path4254"
       d="m 506.43617,188.97685 -49.80919,15.4613 -11.51738,-44.82796 -0.22259,16.25764 11.95576,51.30356 50.40807,-15.29789 z"
       style="fill:#eeeeee;fill-opacity:1;fill-rule:evenodd;stroke:none;stroke-width:5;stroke-linecap:butt;stroke-linejoin:miter;stroke-miterlimit:4;stroke-dasharray:none;stroke-opacity:1" />
    <path
       style="fill:#eeeeee;fill-opacity:1;fill-rule:evenodd;stroke:none;stroke-width:5;stroke-linecap:butt;stroke-linejoin:miter;stroke-miterlimit:4;stroke-dasharray:none;stroke-opacity:1"
       d="m 506.43617,165.9331 -49.80919,15.4613 -11.51738,-44.82796 -0.22259,16.25764 11.95576,51.30356 50.40807,-15.29789 z"
       id="path4256"
       inkscape:connector-curvature="0"
       sodipodi:nodetypes="ccccccc" />
    <path
       sodipodi:nodetypes="ccccc"
       inkscape:connector-curvature="0"
       id="path4259"
       d="m 569.57695,198.05045 0.0379,23.90499 38.45243,-36.00586 1.06143,-23.09018 z"
       style="fill:#32a679;fill-opacity:1;fill-rule:evenodd;stroke:none;stroke-width:5;stroke-linecap:butt;stroke-linejoin:miter;stroke-miterlimit:4;stroke-dasharray:none;stroke-opacity:1" />
    <path
       style="fill:#ccad47;fill-opacity:1;fill-rule:evenodd;stroke:none;stroke-width:5;stroke-linecap:butt;stroke-linejoin:miter;stroke-miterlimit:4;stroke-dasharray:none;stroke-opacity:1"
       d="m 569.57695,175.0067 0.0379,23.90499 38.45243,-36.00587 1.06143,-23.09018 z"
       id="path4261"
       inkscape:connector-curvature="0"
       sodipodi:nodetypes="ccccc" />
    <path
       sodipodi:nodetypes="ccccc"
       inkscape:connector-curvature="0"
       id="path4263"
       d="m 569.57695,151.96295 0.0379,23.90498 38.45243,-36.00586 1.06143,-23.09018 z"
       style="fill:#32a679;fill-opacity:1;fill-rule:evenodd;stroke:none;stroke-width:5;stroke-linecap:butt;stroke-linejoin:miter;stroke-miterlimit:4;stroke-dasharray:none;stroke-opacity:1" />
    <path
       style="fill:#32a679;fill-opacity:1;fill-rule:evenodd;stroke:none;stroke-width:5;stroke-linecap:butt;stroke-linejoin:miter;stroke-miterlimit:4;stroke-dasharray:none;stroke-opacity:1"
       d="m 569.57695,128.9192 0.0379,23.90498 38.45243,-36.00586 1.06143,-23.090178 z"
       id="path4265"
       inkscape:connector-curvature="0"
       sodipodi:nodetypes="ccccc" />
    <path
       sodipodi:nodetypes="ccccc"
       inkscape:connector-curvature="0"
       id="path4268"
       d="m 444.51747,174.71926 0.36944,24.19243 -38.45243,-36.00587 0.56801,-23.78498 z"
       style="fill:#eeeeee;fill-opacity:1;fill-rule:evenodd;stroke:none;stroke-width:5;stroke-linecap:butt;stroke-linejoin:miter;stroke-miterlimit:4;stroke-dasharray:none;stroke-opacity:1" />
    <path
       style="fill:#2495be;fill-opacity:1;fill-rule:evenodd;stroke:none;stroke-width:5;stroke-linecap:butt;stroke-linejoin:miter;stroke-miterlimit:4;stroke-dasharray:none;stroke-opacity:1"
       d="m 444.51747,151.67551 0.36944,24.19242 -38.45243,-36.00586 0.56801,-23.78498 z"
       id="path4270"
       inkscape:connector-curvature="0"
       sodipodi:nodetypes="ccccc" />
    <path
       sodipodi:nodetypes="ccccc"
       inkscape:connector-curvature="0"
       id="path4272"
       d="m 444.51747,128.63176 0.36944,24.19242 -38.45243,-36.00586 0.56801,-23.784982 z"
       style="fill:#2495be;fill-opacity:1;fill-rule:evenodd;stroke:none;stroke-width:5;stroke-linecap:butt;stroke-linejoin:miter;stroke-miterlimit:4;stroke-dasharray:none;stroke-opacity:1" />
    <path
       style="fill:#2495be;fill-opacity:1;fill-rule:evenodd;stroke:none;stroke-width:5;stroke-linecap:butt;stroke-linejoin:miter;stroke-miterlimit:4;stroke-dasharray:none;stroke-opacity:1"
       d="m 444.51747,197.76301 0.36944,24.19243 -38.45243,-36.00586 0.56801,-23.78499 z"
       id="path4274"
       inkscape:connector-curvature="0"
       sodipodi:nodetypes="ccccc" />
    <path
       style="fill:none;fill-opacity:1;fill-rule:evenodd;stroke:#000000;stroke-width:2.88046885;stroke-linecap:butt;stroke-linejoin:miter;stroke-miterlimit:4;stroke-dasharray:none;stroke-opacity:1"
       d="m 405.29103,184.89873 39.59546,37.05621 11.95619,51.30385 50.40821,-15.29799 50.40821,15.29799 11.95619,-51.30385 39.55328,-37.03949"
       id="path4276"
       inkscape:connector-curvature="0"
       sodipodi:nodetypes="ccccccc" />
    <path
       sodipodi:nodetypes="ccccccc"
       inkscape:connector-curvature="0"
       id="path4278"
       d="m 406.43448,162.90532 38.45201,36.00586 11.95619,51.30386 50.40821,-15.29799 50.40821,15.29799 11.95619,-51.30386 38.45201,-36.00586"
       style="fill:none;fill-opacity:1;fill-rule:evenodd;stroke:#000000;stroke-width:2.88046885;stroke-linecap:butt;stroke-linejoin:miter;stroke-miterlimit:4;stroke-dasharray:none;stroke-opacity:1" />
    <path
       style="fill:none;fill-opacity:1;fill-rule:evenodd;stroke:#000000;stroke-width:2.88046885;stroke-linecap:butt;stroke-linejoin:miter;stroke-miterlimit:4;stroke-dasharray:none;stroke-opacity:1"
       d="m 406.43448,139.86157 38.45201,36.00586 11.95619,51.30386 50.40821,-15.298 50.40821,15.298 11.95619,-51.30386 38.45201,-36.00586"
       id="path4280"
       inkscape:connector-curvature="0"
       sodipodi:nodetypes="ccccccc" />
    <path
       sodipodi:nodetypes="ccccccc"
       inkscape:connector-curvature="0"
       id="path4282"
       d="m 406.43448,116.81782 38.45201,36.00586 11.95619,51.30386 50.40821,-15.298 50.40821,15.298 11.95619,-51.30386 38.45201,-36.00586"
       style="fill:none;fill-opacity:1;fill-rule:evenodd;stroke:#000000;stroke-width:2.88046885;stroke-linecap:butt;stroke-linejoin:miter;stroke-miterlimit:4;stroke-dasharray:none;stroke-opacity:1" />
    <path
       sodipodi:nodetypes="ccccc"
       inkscape:connector-curvature="0"
       id="path4284"
       d="m 507.25089,93.774569 0,-72.011724 L 456.84268,6.4649973 444.88701,57.768707 Z"
       style="fill:#cd656c;fill-opacity:1;fill-rule:evenodd;stroke:#000000;stroke-width:2.88046885;stroke-linecap:butt;stroke-linejoin:miter;stroke-miterlimit:4;stroke-dasharray:none;stroke-opacity:1" />
    <path
       style="fill:#ccad47;fill-opacity:1;fill-rule:evenodd;stroke:#000000;stroke-width:2.88000011;stroke-linecap:butt;stroke-linejoin:miter;stroke-miterlimit:4;stroke-dasharray:none;stroke-opacity:1"
       d="m 507.25089,93.774569 0,-72.011724 50.40821,-15.2978477 11.95567,51.3037097 z"
       id="path4286"
       inkscape:connector-curvature="0"
       sodipodi:nodetypes="ccccc" />
    <path
       style="fill:#32a679;fill-opacity:1;fill-rule:evenodd;stroke:#000000;stroke-width:2.88046885;stroke-linecap:butt;stroke-linejoin:miter;stroke-miterlimit:4;stroke-dasharray:none;stroke-opacity:1"
       d="M 507.25089,93.774569 569.61488,129.78043 608.0673,93.774569 569.61482,57.768794 Z"
       id="path4288"
       inkscape:connector-curvature="0"
       sodipodi:nodetypes="ccccc" />
    <path
       sodipodi:nodetypes="ccccc"
       inkscape:connector-curvature="0"
       id="path4290"
       d="M 507.25089,93.774569 569.61488,129.78033 557.6591,181.08389 507.25094,165.786 Z"
       style="fill:#cd8959;fill-opacity:1;fill-rule:evenodd;stroke:#000000;stroke-width:2.88046885;stroke-linecap:butt;stroke-linejoin:miter;stroke-miterlimit:4;stroke-dasharray:none;stroke-opacity:1" />
    <path
       sodipodi:nodetypes="ccccc"
       inkscape:connector-curvature="0"
       id="path4292"
       d="M 507.25089,93.774569 444.88691,129.78043 406.43448,93.774569 444.88696,57.768794 Z"
       style="fill:#2495be;fill-opacity:1;fill-rule:evenodd;stroke:#000000;stroke-width:2.88046885;stroke-linecap:butt;stroke-linejoin:miter;stroke-miterlimit:4;stroke-dasharray:none;stroke-opacity:1" />
    <path
       style="fill:#eeeeee;fill-opacity:1;fill-rule:evenodd;stroke:#000000;stroke-width:2.88046885;stroke-linecap:butt;stroke-linejoin:miter;stroke-miterlimit:4;stroke-dasharray:none;stroke-opacity:1"
       d="m 507.25089,93.774569 -62.36388,36.005761 11.95576,51.30356 50.40807,-15.29789 z"
       id="path4294"
       inkscape:connector-curvature="0"
       sodipodi:nodetypes="ccccc" />
    <path
       d="m 507.25137,133.79591 a 40.021271,40.021271 0 0 1 -34.65943,-20.01064 40.021271,40.021271 0 0 1 0,-40.02127 40.021271,40.021271 0 0 1 34.65943,-20.010635"
       sodipodi:open="true"
       sodipodi:end="4.712389"
       sodipodi:start="1.5707963"
       sodipodi:ry="40.021271"
       sodipodi:rx="40.021271"
       sodipodi:cy="93.774635"
       sodipodi:cx="507.25137"
       sodipodi:type="arc"
       id="path4296"
       style="opacity:1;fill:#2495be;fill-opacity:1;stroke:#000000;stroke-width:2.88046885;stroke-linecap:round;stroke-linejoin:round;stroke-miterlimit:4;stroke-dasharray:none;stroke-dashoffset:0;stroke-opacity:1" />
    <path
       style="opacity:1;fill:#2495be;fill-opacity:1;stroke:#000000;stroke-width:2.88046885;stroke-linecap:round;stroke-linejoin:round;stroke-miterlimit:4;stroke-dasharray:none;stroke-dashoffset:0;stroke-opacity:1"
       id="path4298"
       sodipodi:type="arc"
       sodipodi:cx="507.25137"
       sodipodi:cy="93.774635"
       sodipodi:rx="40.021271"
       sodipodi:ry="40.021271"
       sodipodi:start="4.712389"
       sodipodi:end="1.5707963"
       sodipodi:open="true"
       d="m 507.25137,53.753365 a 40.021271,40.021271 0 0 1 40.02127,40.02127 40.021271,40.021271 0 0 1 -40.02127,40.021275" />
    <path
       sodipodi:nodetypes="cc"
       inkscape:connector-curvature="0"
       id="path4300"
       d="m 507.25138,132.98736 0,-78.652761"
       style="fill:none;fill-rule:evenodd;stroke:#000000;stroke-width:2.88046885;stroke-linecap:butt;stroke-linejoin:miter;stroke-miterlimit:4;stroke-dasharray:none;stroke-opacity:1" />
    <path
       sodipodi:nodetypes="cc"
       inkscape:connector-curvature="0"
       id="path4302"
       d="m 405.76747,185.94962 0,-92.173761"
       style="fill:none;fill-rule:evenodd;stroke:#000000;stroke-width:2.88046885;stroke-linecap:butt;stroke-linejoin:miter;stroke-miterlimit:4;stroke-dasharray:none;stroke-opacity:1" />
    <path
       style="fill:none;fill-rule:evenodd;stroke:#000000;stroke-width:2.88046885;stroke-linecap:butt;stroke-linejoin:miter;stroke-miterlimit:4;stroke-dasharray:none;stroke-opacity:1"
       d="m 445.0015,222.57781 0,-92.17375"
       id="path4304"
       inkscape:connector-curvature="0"
       sodipodi:nodetypes="cc" />
    <path
       style="fill:none;fill-rule:evenodd;stroke:#000000;stroke-width:2.88046885;stroke-linecap:butt;stroke-linejoin:miter;stroke-miterlimit:4;stroke-dasharray:none;stroke-opacity:1"
       d="m 608.72633,185.94962 0,-92.173761"
       id="path4306"
       inkscape:connector-curvature="0"
       sodipodi:nodetypes="cc" />
    <path
       sodipodi:nodetypes="cc"
       inkscape:connector-curvature="0"
       id="path4308"
       d="m 569.48868,222.57781 0,-92.17375"
       style="fill:none;fill-rule:evenodd;stroke:#000000;stroke-width:2.88046885;stroke-linecap:butt;stroke-linejoin:miter;stroke-miterlimit:4;stroke-dasharray:none;stroke-opacity:1" />
    <path
       style="fill:none;fill-rule:evenodd;stroke:#000000;stroke-width:2.88046885;stroke-linecap:butt;stroke-linejoin:miter;stroke-miterlimit:4;stroke-dasharray:none;stroke-opacity:1"
       d="m 507.25093,258.14367 0,-91.61487"
       id="path4310"
       inkscape:connector-curvature="0"
       sodipodi:nodetypes="cc" />
    <g
       id="g5512">
      <path
         style="color:#000000;font-style:normal;font-variant:normal;font-weight:normal;font-stretch:normal;font-size:medium;line-height:normal;font-family:sans-serif;text-indent:0;text-align:start;text-decoration:none;text-decoration-line:none;text-decoration-style:solid;text-decoration-color:#000000;letter-spacing:normal;word-spacing:normal;text-transform:none;direction:ltr;block-progression:tb;writing-mode:lr-tb;baseline-shift:baseline;text-anchor:start;white-space:normal;clip-rule:nonzero;display:inline;overflow:visible;visibility:visible;opacity:1;isolation:auto;mix-blend-mode:normal;color-interpolation:sRGB;color-interpolation-filters:linearRGB;solid-color:#000000;solid-opacity:1;fill:#000000;fill-opacity:1;fill-rule:evenodd;stroke:none;stroke-width:2.88000011;stroke-linecap:butt;stroke-linejoin:miter;stroke-miterlimit:4;stroke-dasharray:none;stroke-dashoffset:0;stroke-opacity:1;color-rendering:auto;image-rendering:auto;shape-rendering:auto;text-rendering:auto;enable-background:accumulate"
         d="m 236.30664,216.64453 0,2.87891 144,0 0,-2.87891 -144,0 z"
         id="path4312"
         inkscape:connector-curvature="0" />
      <path
         style="fill:#000000;fill-opacity:1;fill-rule:evenodd;stroke:#000000;stroke-width:2.30400009pt;stroke-opacity:1"
         d="m 351.50691,218.08363 -11.52,11.52 40.32,-11.52 -40.32,-11.52 11.52,11.52 z"
         id="path5518"
         inkscape:connector-curvature="0" />
    </g>
    <g
       id="g5526"
       transform="matrix(0.85521106,-0.51827989,0.51827989,0.85521106,-6.741364,174.22472)">
      <path
         style="color:#000000;font-style:normal;font-variant:normal;font-weight:normal;font-stretch:normal;font-size:medium;line-height:normal;font-family:sans-serif;text-indent:0;text-align:start;text-decoration:none;text-decoration-line:none;text-decoration-style:solid;text-decoration-color:#000000;letter-spacing:normal;word-spacing:normal;text-transform:none;direction:ltr;block-progression:tb;writing-mode:lr-tb;baseline-shift:baseline;text-anchor:start;white-space:normal;clip-rule:nonzero;display:inline;overflow:visible;visibility:visible;opacity:1;isolation:auto;mix-blend-mode:normal;color-interpolation:sRGB;color-interpolation-filters:linearRGB;solid-color:#000000;solid-opacity:1;fill:#000000;fill-opacity:1;fill-rule:evenodd;stroke:none;stroke-width:2;stroke-linecap:butt;stroke-linejoin:miter;stroke-miterlimit:4;stroke-dasharray:none;stroke-dashoffset:0;stroke-opacity:1;color-rendering:auto;image-rendering:auto;shape-rendering:auto;text-rendering:auto;enable-background:accumulate"
         d="m 343.66016,40.53125 -90.20899,149.03516 1.71094,1.03515 90.20898,-149.035154 -1.71093,-1.035156 z"
         id="path4668"
         inkscape:connector-curvature="0" />
      <path
         id="path5532"
         d="m 334.15862,58.158882 2.70142,10.98646 7.65487,-28.096317 -21.34275,19.811283 10.98646,-2.701426 z"
         style="fill:#000000;fill-opacity:1;fill-rule:evenodd;stroke:#000000;stroke-width:1.6pt;stroke-opacity:1"
         inkscape:connector-curvature="0" />
    </g>
    <g
       id="g5534"
       transform="matrix(-0.83277851,-0.55360631,-0.55360631,0.83277851,622.08513,222.51134)">
      <path
         style="color:#000000;font-style:normal;font-variant:normal;font-weight:normal;font-stretch:normal;font-size:medium;line-height:normal;font-family:sans-serif;text-indent:0;text-align:start;text-decoration:none;text-decoration-line:none;text-decoration-style:solid;text-decoration-color:#000000;letter-spacing:normal;word-spacing:normal;text-transform:none;direction:ltr;block-progression:tb;writing-mode:lr-tb;baseline-shift:baseline;text-anchor:start;white-space:normal;clip-rule:nonzero;display:inline;overflow:visible;visibility:visible;opacity:1;isolation:auto;mix-blend-mode:normal;color-interpolation:sRGB;color-interpolation-filters:linearRGB;solid-color:#000000;solid-opacity:1;fill:#000000;fill-opacity:1;fill-rule:nonzero;stroke:none;stroke-width:2;stroke-linecap:round;stroke-linejoin:round;stroke-miterlimit:4;stroke-dasharray:none;stroke-dashoffset:0;stroke-opacity:1;color-rendering:auto;image-rendering:auto;shape-rendering:auto;text-rendering:auto;enable-background:accumulate"
         d="M 319.86986,95.030683 C 306.2801,86.473572 292.15732,80.445501 279.84718,77.512917 c -12.31015,-2.932583 -22.83646,-2.854662 -29.31337,1.256599 -3.23845,2.055635 -5.16868,5.041005 -5.7321,8.547967 -0.56343,3.506956 0.18149,7.499314 2.03865,11.787602 3.71433,8.576585 11.90456,18.415065 23.84673,28.034375 a 1.0001,1.0001 0 1 0 1.25407,-1.55701 c -11.76959,-9.4803 -19.75688,-19.17313 -23.26465,-27.272755 -1.75388,-4.04981 -2.38087,-7.681124 -1.89981,-10.675417 0.48107,-2.994288 2.01124,-5.388347 4.82822,-7.176447 5.63397,-3.576202 15.73583,-3.868568 27.77956,-0.999448 12.04372,2.869113 25.99967,8.815443 39.41877,17.265096 13.4191,8.449651 24.2379,18.106291 31.06523,27.103931 6.82734,8.99764 9.53309,17.25372 7.36642,22.86285 -1.08335,2.80457 -3.26338,4.84206 -6.49505,6.18873 -3.23167,1.34666 -7.50692,1.94967 -12.55155,1.74582 -10.08926,-0.4077 -23.22498,-4.02521 -37.28337,-10.80674 a 1.0006014,1.0006014 0 1 0 -0.87028,1.80206 c 14.24578,6.87192 27.57903,10.57924 38.07248,11.00328 5.24673,0.21201 9.7921,-0.39444 13.40204,-1.89873 3.60995,-1.50429 6.29517,-3.9588 7.5908,-7.31294 2.59125,-6.70828 -0.61361,-15.53547 -7.63853,-24.7935 -7.02491,-9.25803 -18.00183,-19.03045 -31.59158,-27.587557 z"
         id="path4826"
         inkscape:connector-curvature="0" />
      <path
         style="fill:#000000;fill-opacity:1;fill-rule:evenodd;stroke:#000000;stroke-width:1.6pt;stroke-opacity:1"
         d="m 255.73823,113.81413 -11.24862,1.21184 26.8242,11.33414 -16.78742,-23.7946 1.21184,11.24862 z"
         id="path5540"
         inkscape:connector-curvature="0" />
    </g>
    <g
       transform="translate(119.30691,194.64016)"
       style="font-style:normal;font-weight:normal;font-size:40px;line-height:125%;font-family:Sans;letter-spacing:0px;word-spacing:0px;fill:#000000;fill-opacity:1;stroke:none;stroke-width:1px;stroke-linecap:butt;stroke-linejoin:miter;stroke-opacity:1"
       id="flowRoot4217">
      <path
         d="m 224.80859,-76.934295 q 0,4.082032 -2.07031,6.308594 -2.05078,2.207031 -5.9375,2.207031 -4.41406,0 -6.75781,-3.4375 -2.32422,-3.4375 -2.32422,-9.882812 0,-4.21875 1.23047,-7.285156 1.23047,-3.066407 3.4375,-4.667969 2.22656,-1.601563 5.13672,-1.601563 2.85156,0 5.68359,0.683594 l 0,4.511719 -1.28906,0 -0.6836,-2.675781 q -0.64453,-0.351563 -1.73828,-0.605469 -1.09375,-0.273438 -1.97265,-0.273438 -2.85157,0 -4.45313,2.773438 -1.58203,2.753906 -1.73828,8.066406 3.18359,-1.679687 6.38672,-1.679687 3.45703,0 5.27344,1.953125 1.8164,1.933593 1.8164,5.605468 z m -8.08593,6.972657 q 2.36328,0 3.41796,-1.523438 1.05469,-1.542969 1.05469,-5.078125 0,-3.203125 -1.01562,-4.628906 -0.9961,-1.425781 -3.1836,-1.425781 -2.67578,0 -5.68359,0.976562 0,5.957031 1.34766,8.828125 1.34765,2.851563 4.0625,2.851563 z"
         style="font-style:normal;font-variant:normal;font-weight:normal;font-stretch:normal;font-family:'Liberation Serif';-inkscape-font-specification:'Liberation Serif'"
         id="path4226"
         inkscape:connector-curvature="0" />
      <path
         d="m 244.47656,-82.01242 q 0,13.59375 -8.59375,13.59375 -4.14062,0 -6.25,-3.476562 -2.10937,-3.476563 -2.10937,-10.117188 0,-6.503906 2.10937,-9.941406 2.10938,-3.457031 6.40625,-3.457031 4.14063,0 6.28906,3.417969 2.14844,3.398437 2.14844,9.980468 z m -3.59375,0 q 0,-6.289062 -1.1914,-9.0625 -1.19141,-2.773437 -3.8086,-2.773437 -2.53906,0 -3.65234,2.617187 -1.11328,2.617188 -1.11328,9.21875 0,6.640625 1.13281,9.355469 1.13281,2.695313 3.63281,2.695313 2.57813,0 3.78906,-2.832032 1.21094,-2.851562 1.21094,-9.21875 z"
         style="font-style:normal;font-variant:normal;font-weight:normal;font-stretch:normal;font-family:'Liberation Serif';-inkscape-font-specification:'Liberation Serif'"
         id="path4228"
         inkscape:connector-curvature="0" />
      <path
         d="m 247.91406,-89.336638 q 0,-1.621094 0.80078,-3.027344 0.80078,-1.40625 2.20703,-2.226563 1.42579,-0.820312 3.04688,-0.820312 1.62109,0 3.02734,0.820312 1.40625,0.800782 2.22657,2.207032 0.82031,1.40625 0.82031,3.046875 0,1.640625 -0.83985,3.066406 -0.82031,1.40625 -2.22656,2.207031 -1.40625,0.78125 -3.00781,0.78125 -2.53906,0 -4.29688,-1.757812 -1.75781,-1.757813 -1.75781,-4.296875 z m 1.99219,0 q 0,1.738281 1.19141,2.929687 1.21093,1.171875 2.87109,1.171875 1.71875,0 2.89062,-1.191406 1.19141,-1.191406 1.19141,-2.910156 0,-1.738282 -1.19141,-2.929688 -1.17187,-1.191406 -2.89062,-1.191406 -1.66016,0 -2.87109,1.191406 -1.19141,1.171875 -1.19141,2.929688 z"
         style="font-style:normal;font-variant:normal;font-weight:normal;font-stretch:normal;font-family:'Liberation Serif';-inkscape-font-specification:'Liberation Serif'"
         id="path4230"
         inkscape:connector-curvature="0" />
    </g>
  </g>
</svg>
